<?xml version="1.0" encoding="UTF-8" standalone="no"?>
<!-- Created with Inkscape (http://www.inkscape.org/) -->

<svg
   version="1.1"
   id="svg2"
   width="1055"
   height="206"
   viewBox="0 0 1055 206"
   sodipodi:docname="icsa.svg"
   inkscape:version="1.2.2 (b0a8486541, 2022-12-01)"
   xmlns:inkscape="http://www.inkscape.org/namespaces/inkscape"
   xmlns:sodipodi="http://sodipodi.sourceforge.net/DTD/sodipodi-0.dtd"
   xmlns="http://www.w3.org/2000/svg"
   xmlns:svg="http://www.w3.org/2000/svg">
  <defs
     id="defs6">
    <rect
       x="463.34363"
       y="116.06549"
       width="500.07786"
       height="66.023283"
       id="rect2275" />
    <rect
       x="453.66908"
       y="50.62224"
       width="570.47576"
       height="127.70545"
       id="rect878" />
    <rect
       x="464.19577"
       y="54.976083"
       width="525.6904"
       height="123.69243"
       id="rect5742" />
    <rect
       x="468.74276"
       y="62.852939"
       width="500.89794"
       height="110.64974"
       id="rect5684" />
    <rect
       x="464.19577"
       y="54.976082"
       width="525.69043"
       height="123.69243"
       id="rect5742-7" />
    <rect
       x="464.19577"
       y="54.976082"
       width="525.69043"
       height="123.69243"
       id="rect5742-7-4" />
  </defs>
  <sodipodi:namedview
     id="namedview4"
     pagecolor="#ffffff"
     bordercolor="#000000"
     borderopacity="0.25"
     inkscape:showpageshadow="2"
     inkscape:pageopacity="0.0"
     inkscape:pagecheckerboard="0"
     inkscape:deskcolor="#d1d1d1"
     showgrid="false"
     inkscape:zoom="0.53264207"
     inkscape:cx="471.23578"
     inkscape:cy="292.87961"
     inkscape:window-width="1920"
     inkscape:window-height="1019"
     inkscape:window-x="0"
     inkscape:window-y="0"
     inkscape:window-maximized="1"
     inkscape:current-layer="g8" />
  <g
     inkscape:groupmode="layer"
     inkscape:label="Image"
     id="g8">
    <path
       d="m 110.38814,71.452408 c -9.54032,6.016284 -14.045416,7.90847 -23.380298,9.675876 l -0.214654,72.862736 h 23.594952 z"
       id="path2352"
       sodipodi:nodetypes="ccccc"
       style="font-weight:bold;font-size:145.391px;font-family:'ITC Avant Garde Gothic';-inkscape-font-specification:'ITC Avant Garde Gothic, Bold';text-align:center;text-anchor:middle;fill:#c5204d;stroke-width:1.28791" />
    <path
       d="m 183.59213,121.75284 c -2.55849,5.05641 -7.24905,11.00514 -17.05659,11.00514 -11.22892,0 -18.76224,-8.92309 -18.76224,-20.96927 0,-11.89745 7.53332,-21.564134 18.76224,-20.969261 9.80754,0 14.4981,5.948728 17.05659,11.600021 h 23.87922 c -3.97987,-20.225677 -20.89432,-34.651343 -41.78864,-34.651343 -23.59494,0 -41.6465,19.630803 -41.6465,43.871873 0,24.53851 18.33583,44.16931 42.21506,44.16931 21.32073,0 37.09807,-15.31798 41.36222,-34.05647 z"
       id="path2354"
       style="font-weight:bold;font-size:145.391px;font-family:'ITC Avant Garde Gothic';-inkscape-font-specification:'ITC Avant Garde Gothic, Bold';text-align:center;text-anchor:middle;fill:#c5204d;stroke-width:1.28791" />
    <path
       d="m 277.26128,93.793813 c -1.98993,-21.712859 -19.89935,-26.025686 -30.27544,-26.025686 -16.3459,0 -30.55972,10.856429 -30.55972,27.215431 0,11.153862 8.52829,18.143622 18.76225,21.564142 15.06665,6.09744 20.89432,6.84104 20.89432,13.23592 0,4.01539 -4.26415,6.39489 -8.24401,6.39489 -0.99497,0 -7.95975,0 -8.95472,-7.58464 h -23.4528 c 2.13207,21.71286 20.18363,27.36415 32.12323,27.36415 17.48301,0 32.12325,-10.7077 32.12325,-28.10774 0,-17.84618 -14.21383,-22.01029 -27.57482,-25.87697 -6.25408,-1.93333 -12.08175,-4.461542 -12.08175,-8.923088 0,-2.230773 1.70566,-5.502574 6.6805,-5.502574 6.96477,0 7.24905,4.461546 7.39119,6.246165 z"
       id="path2356"
       style="font-weight:bold;font-size:145.391px;font-family:'ITC Avant Garde Gothic';-inkscape-font-specification:'ITC Avant Garde Gothic, Bold';text-align:center;text-anchor:middle;fill:#c5204d;stroke-width:1.28791" />
    <path
       d="m 374.34178,70.593772 h -23.59495 v 8.774375 h -0.28427 c -2.84277,-5.05642 -10.09182,-11.60002 -23.0264,-11.60002 -21.03646,0 -39.65657,16.953875 -39.65657,44.020583 0,23.6462 14.64024,44.16931 39.65657,44.16931 9.23899,0 19.04652,-3.71796 23.0264,-11.74874 h 0.28427 v 8.9231 h 23.59495 z m -62.96724,41.492378 c 0,-9.36924 5.9698,-21.266701 19.47294,-21.266701 13.36099,0 19.89935,11.005151 19.89935,20.969261 0,8.03079 -4.97484,21.11799 -19.75721,21.11799 -14.21383,0 -19.61508,-13.0872 -19.61508,-20.82055 z"
       id="path2358"
       style="font-weight:bold;font-size:145.391px;font-family:'ITC Avant Garde Gothic';-inkscape-font-specification:'ITC Avant Garde Gothic, Bold';text-align:center;text-anchor:middle;fill:#c5204d;stroke-width:1.28791" />
    <circle
       style="font-weight:bold;font-size:145.391px;font-family:'ITC Avant Garde Gothic';-inkscape-font-specification:'ITC Avant Garde Gothic, Bold';text-align:center;text-anchor:middle;fill:#c5204d;fill-opacity:1;stroke-width:0.755906;-inkscape-stroke:none;stop-color:#000000"
       id="path5413"
       cx="99.044189"
       cy="55.393696"
       r="13.588717" />
    <text
       xml:space="preserve"
       id="text5682"
       style="font-style:normal;font-variant:normal;font-weight:bold;font-stretch:normal;font-size:26.6667px;font-family:'ITC Avant Garde Gothic';-inkscape-font-specification:'ITC Avant Garde Gothic, Bold';font-variant-ligatures:normal;font-variant-caps:normal;font-variant-numeric:normal;font-variant-east-asian:normal;text-align:center;white-space:pre;shape-inside:url(#rect5684);display:inline;fill:#19253e;fill-opacity:1;stroke-width:0.755906;-inkscape-stroke:none;stop-color:#000000" />
    <path
       style="fill:#19253e;fill-opacity:1;stroke:#000000;stroke-width:0.755906;stroke-opacity:1;-inkscape-stroke:none;stop-color:#000000"
       d="M 422.47826,161.54875 V 42.585133"
       id="path6134"
       sodipodi:nodetypes="cc" />
    <path
       d="M 477.49832,100.37679 V 67.780349 h -4.35535 v 32.596441 z"
       style="font-size:48px;font-family:'ITC Avant Garde Gothic';-inkscape-font-specification:'ITC Avant Garde Gothic, Normal';white-space:pre;fill:#19253e;stroke:#ffffff;stroke-width:0.7896"
       id="path2279" />
    <path
       d="M 488.73213,100.38866 V 84.030028 c 0,-3.154558 2.40929,-5.90353 6.80888,-5.90353 3.45683,0 5.34237,1.892734 5.34237,5.497944 v 16.764218 h 3.87583 V 82.633009 c 0,-4.05586 -2.51406,-7.480808 -8.74681,-7.480808 -4.03296,0 -6.38989,1.442083 -7.17554,3.875599 h -0.10473 v -3.424949 h -3.87584 v 24.785809 z"
       style="font-size:48px;font-family:'ITC Avant Garde Gothic';-inkscape-font-specification:'ITC Avant Garde Gothic, Normal';white-space:pre;fill:#19253e;stroke:#ffffff;stroke-width:0.765092"
       id="path2281" />
    <path
       d="m 523.78209,82.794015 c -0.0794,-4.975378 -2.77838,-7.689221 -7.54131,-7.689221 -3.96911,0 -6.74749,2.804304 -6.74749,6.875068 0,9.769834 11.51042,5.06584 11.51042,11.850446 0,2.804305 -1.90517,4.070764 -4.84232,4.070764 -2.26239,0 -4.28663,-1.673536 -4.28663,-4.749224 h -2.93715 c 0,4.975378 3.09591,7.734452 7.50162,7.734452 4.72323,0 7.66038,-2.985228 7.66038,-7.508299 0,-9.227064 -11.51041,-5.608607 -11.51041,-11.398139 0,-2.623381 1.66702,-3.889841 3.88972,-3.889841 2.699,0 4.16756,1.718767 4.36603,4.703994 z"
       style="font-size:48px;font-family:'ITC Avant Garde Gothic';-inkscape-font-specification:'ITC Avant Garde Gothic, Normal';white-space:pre;fill:#19253e;stroke:#ffffff;stroke-width:0.667252"
       id="path2283" />
    <path
       d="m 534.86314,78.315664 h 4.74622 v -2.701362 h -4.74622 v -7.653861 h -4.132 v 7.653861 h -3.85282 v 2.701362 h 3.85282 v 22.061126 h 4.132 z"
       style="font-size:48px;font-family:'ITC Avant Garde Gothic';-inkscape-font-specification:'ITC Avant Garde Gothic, Normal';white-space:pre;fill:#19253e;stroke:#ffffff;stroke-width:0.7896"
       id="path2285" />
    <path
       d="M 545.94415,100.28283 V 75.520346 h -4.13199 v 24.762484 z m 0,-28.364301 v -4.052044 h -4.13199 v 4.052044 z"
       style="font-size:48px;font-family:'ITC Avant Garde Gothic';-inkscape-font-specification:'ITC Avant Garde Gothic, Normal';white-space:pre;fill:#19253e;stroke:#ffffff;stroke-width:0.7896"
       id="path2287" />
    <path
       d="m 558.40985,78.315664 h 4.74621 v -2.701362 h -4.74621 v -7.653861 h -4.132 v 7.653861 h -3.85282 v 2.701362 h 3.85282 v 22.061126 h 4.132 z"
       style="font-size:48px;font-family:'ITC Avant Garde Gothic';-inkscape-font-specification:'ITC Avant Garde Gothic, Normal';white-space:pre;fill:#19253e;stroke:#ffffff;stroke-width:0.7896"
       id="path2289" />
    <path
       d="m 583.30938,74.983594 v 16.343243 c 0,3.15159 -2.56853,5.897975 -7.25892,5.897975 -3.6853,0 -5.69546,-1.890953 -5.69546,-5.49277 V 74.983594 h -4.13201 v 17.738947 c 0,4.052044 2.68023,7.473769 9.32493,7.473769 4.29952,0 6.81221,-1.440726 7.64978,-3.871952 h 0.11168 v 3.421723 h 4.13201 V 74.983594 Z"
       style="font-size:48px;font-family:'ITC Avant Garde Gothic';-inkscape-font-specification:'ITC Avant Garde Gothic, Normal';white-space:pre;fill:#19253e;stroke:#ffffff;stroke-width:0.7896"
       id="path2291" />
    <path
       d="m 600.48154,78.315664 h 4.74622 v -2.701362 h -4.74622 v -7.653861 h -4.132 v 7.653861 h -3.85282 v 2.701362 h 3.85282 v 22.061126 h 4.132 z"
       style="font-size:48px;font-family:'ITC Avant Garde Gothic';-inkscape-font-specification:'ITC Avant Garde Gothic, Normal';white-space:pre;fill:#19253e;stroke:#ffffff;stroke-width:0.7896"
       id="path2293" />
    <path
       d="m 633.73189,89.207549 v -2.109782 c 0,-7.496459 -4.74034,-11.895577 -12.73121,-11.895577 -8.53262,0 -13.54383,5.386676 -13.54383,12.748467 0,8.259571 5.48526,12.838243 13.88243,12.838243 7.17824,0 12.39261,-4.668449 12.39261,-8.932901 h -4.80807 c -0.54174,2.872894 -2.64104,5.970233 -7.51682,5.970233 -5.75613,0 -8.93894,-4.040008 -8.93894,-8.618683 z m -21.26383,-2.962672 c 0.0677,-4.84801 3.86,-8.080015 8.32948,-8.080015 5.41753,0 7.92313,3.232005 7.92313,8.080015 z"
       style="font-size:48px;font-family:'ITC Avant Garde Gothic';-inkscape-font-specification:'ITC Avant Garde Gothic, Normal';white-space:pre;fill:#19253e;stroke:#ffffff;stroke-width:0.868265"
       id="path2295" />
    <path
       d="m 661.55756,67.270823 c -1.06106,-0.04604 -2.06627,-0.138106 -3.12733,-0.138106 -3.79747,0 -6.42219,1.519161 -6.42219,5.386115 v 2.624006 h -3.85331 v 2.762109 h 3.85331 v 22.557233 h 4.13254 V 77.904947 h 4.80268 v -2.762109 h -4.80268 v -2.716077 c 0,-1.7033 0.55845,-2.531934 2.51303,-2.531934 h 2.90395 z"
       style="font-size:48px;font-family:'ITC Avant Garde Gothic';-inkscape-font-specification:'ITC Avant Garde Gothic, Normal';white-space:pre;fill:#19253e;stroke:#ffffff;stroke-width:0.79848"
       id="path2297" />
    <path
       d="m 675.86166,74.834889 c -8.71183,0 -12.06254,5.984572 -12.06254,13.120024 0,7.135451 3.35071,13.120017 12.06254,13.120017 8.71183,0 12.06254,-5.984566 12.06254,-13.120017 0,-7.135452 -3.35071,-13.120024 -12.06254,-13.120024 z m 0,3.038321 c 5.13775,0 7.93,4.051096 7.93,10.081703 0,6.030608 -2.79225,10.081702 -7.93,10.081702 -5.13775,0 -7.93,-4.051094 -7.93,-10.081702 0,-6.030607 2.79225,-10.081703 7.93,-10.081703 z"
       style="font-size:48px;font-family:'ITC Avant Garde Gothic';-inkscape-font-specification:'ITC Avant Garde Gothic, Normal';white-space:pre;fill:#19253e;stroke:#ffffff;stroke-width:0.79848"
       id="path2299" />
    <path
       d="M 697.51419,100.37205 V 83.891467 c 0,-3.268498 2.34549,-5.984572 6.14295,-5.984572 h 1.78705 v -3.314532 c -4.4676,0 -7.09233,0.598456 -8.37676,3.774884 h -0.11169 v -3.314533 h -3.57409 v 25.319336 z"
       style="font-size:48px;font-family:'ITC Avant Garde Gothic';-inkscape-font-specification:'ITC Avant Garde Gothic, Normal';white-space:pre;fill:#19253e;stroke:#ffffff;stroke-width:0.79848"
       id="path2301" />
    <path
       d="m 750.59422,80.166248 c -0.0669,-6.691325 -5.15813,-12.568839 -15.81016,-12.568839 -11.18798,0 -16.08009,7.156673 -16.08009,16.877176 0,9.720504 4.89211,16.941145 15.81212,16.941145 11.18798,0 16.07813,-5.154136 16.07813,-11.845459 h -4.82314 c -0.46898,5.696667 -3.88566,8.861482 -10.85304,8.861482 -7.03435,0 -11.32196,-5.154128 -11.32196,-13.925188 0,-9.223175 3.88564,-13.925187 11.32196,-13.925187 7.63731,0 10.78603,5.244551 10.98702,9.58487 z"
       style="font-size:48px;font-family:'ITC Avant Garde Gothic';-inkscape-font-specification:'ITC Avant Garde Gothic, Normal';white-space:pre;fill:#19253e;stroke:#ffffff;stroke-width:0.866702"
       id="path2303"
       sodipodi:nodetypes="csssccssscc" />
    <path
       d="m 766.89754,75.545081 c -9.14711,0 -12.66523,5.885739 -12.66523,12.903351 0,7.017612 3.51812,12.903348 12.66523,12.903348 9.14711,0 12.66523,-5.885736 12.66523,-12.903348 0,-7.017612 -3.51812,-12.903351 -12.66523,-12.903351 z m 0,2.988144 c 5.39446,0 8.32622,3.984193 8.32622,9.915207 0,5.931014 -2.93176,9.915206 -8.32622,9.915206 -5.39445,0 -8.32621,-3.984192 -8.32621,-9.915206 0,-5.931014 2.93176,-9.915207 8.32621,-9.915207 z"
       style="font-size:48px;font-family:'ITC Avant Garde Gothic';-inkscape-font-specification:'ITC Avant Garde Gothic, Normal';white-space:pre;fill:#19253e;stroke:#ffffff;stroke-width:0.8114"
       id="path2305" />
    <path
       d="M 804.9455,100.91002 V 84.415448 c 0,-3.262662 2.15901,-5.890917 6.80918,-5.890917 3.59835,-0.04531 5.25912,1.767275 5.25912,5.43777 v 16.947719 h 4.09659 V 83.146636 c 0,-5.61903 -3.9305,-7.612879 -9.07891,-7.612879 -3.87516,0 -6.14488,1.042239 -8.13781,3.625181 h -0.11072 c -1.55006,-2.900145 -4.59481,-3.625181 -7.30742,-3.625181 -4.26266,0 -6.75382,1.450072 -7.58421,3.897069 h -0.11071 v -3.443921 h -4.09659 v 24.923115 h 4.09659 V 84.415448 c 0,-3.262662 2.159,-5.890917 6.80918,-5.890917 3.59835,-0.04531 5.25913,1.767275 5.25913,5.43777 v 16.947719 z"
       style="font-size:48px;font-family:'ITC Avant Garde Gothic';-inkscape-font-specification:'ITC Avant Garde Gothic, Normal';white-space:pre;fill:#19253e;stroke:#ffffff;stroke-width:0.788755"
       id="path2307" />
    <path
       d="m 826.23607,109.85954 h 4.56403 V 98.364477 h 0.12335 c 1.66526,1.810243 4.62572,2.986903 7.95622,2.986903 8.69634,0 12.39691,-5.883295 12.39691,-12.897998 0,-7.014702 -3.70057,-12.898001 -12.08853,-12.898001 -4.13229,0 -6.47598,0.81461 -8.69632,3.032162 h -0.12336 v -2.5796 h -4.1323 z m 20.47647,-21.406158 c 0,6.743165 -2.52871,9.911095 -8.07957,9.911095 -5.18079,0 -8.07958,-2.579599 -8.07958,-9.911095 0,-7.331496 2.89879,-9.911095 8.07958,-9.911095 5.4275,0 8.07957,3.711003 8.07957,9.911095 z"
       style="font-size:48px;font-family:'ITC Avant Garde Gothic';-inkscape-font-specification:'ITC Avant Garde Gothic, Normal';white-space:pre;fill:#19253e;stroke:#ffffff;stroke-width:0.832002"
       id="path2309" />
    <path
       d="m 874.1248,75.98851 v 16.447097 c 0,3.171617 -2.5684,5.935453 -7.25852,5.935453 -3.68509,0 -5.69515,-1.902969 -5.69515,-5.527674 V 75.98851 h -4.13178 v 17.85167 c 0,4.077792 2.68008,7.52126 9.32441,7.52126 4.29929,0 6.81185,-1.44988 7.64937,-3.896556 h 0.11167 v 3.443466 h 4.13177 V 75.98851 Z"
       style="font-size:48px;font-family:'ITC Avant Garde Gothic';-inkscape-font-specification:'ITC Avant Garde Gothic, Normal';white-space:pre;fill:#19253e;stroke:#ffffff;stroke-width:0.792083"
       id="path2311" />
    <path
       d="m 889.87021,78.707038 h 4.74595 V 75.98851 h -4.74595 v -7.702498 h -4.13177 v 7.702498 h -3.8526 v 2.718528 h 3.8526 v 22.201312 h 4.13177 z"
       style="font-size:48px;font-family:'ITC Avant Garde Gothic';-inkscape-font-specification:'ITC Avant Garde Gothic, Normal';white-space:pre;fill:#19253e;stroke:#ffffff;stroke-width:0.792083"
       id="path2313" />
    <path
       d="M 902.26552,100.90835 V 75.98851 h -4.13176 v 24.91984 z m 0,-28.544545 v -4.077793 h -4.13176 v 4.077793 z"
       style="font-size:48px;font-family:'ITC Avant Garde Gothic';-inkscape-font-specification:'ITC Avant Garde Gothic, Normal';white-space:pre;fill:#19253e;stroke:#ffffff;stroke-width:0.792083"
       id="path2315" />
    <path
       d="M 911.74161,100.90835 V 84.461256 c 0,-3.171616 2.56839,-5.935453 7.25851,-5.935453 3.6851,0 5.69515,1.902969 5.69515,5.527674 v 16.854873 h 4.13178 V 83.056684 c 0,-4.077793 -2.68008,-7.521262 -9.32441,-7.521262 -4.29928,0 -6.81184,1.449881 -7.64936,3.896557 h -0.11167 V 75.98851 h -4.13178 v 24.91984 z"
       style="font-size:48px;font-family:'ITC Avant Garde Gothic';-inkscape-font-specification:'ITC Avant Garde Gothic, Normal';white-space:pre;fill:#19253e;stroke:#ffffff;stroke-width:0.792083"
       id="path2317" />
    <path
       d="m 954.3076,76.011331 v 3.484117 h -0.12544 c -1.44253,-3.031634 -4.64121,-3.9366 -8.8434,-3.9366 -8.27895,0 -11.91666,5.882276 -11.91666,12.895758 0,7.013483 3.63771,12.895754 12.23026,12.895754 3.63772,0 6.71096,-0.99546 8.4671,-3.891348 h 0.12543 v 4.434338 c 0,4.16284 -2.82236,5.70128 -8.21622,5.70128 -4.45307,0 -7.52632,-1.44795 -7.52632,-5.15831 h -4.64122 c 0,5.33931 4.45307,8.14469 11.97938,8.14469 8.52982,0 12.79472,-2.80538 12.79472,-8.23519 V 76.011331 Z m -16.24428,12.443275 c 0,-6.741992 2.5715,-9.909372 8.21622,-9.909372 4.76667,0 7.71448,2.579152 7.71448,9.909372 0,7.330221 -2.94781,9.909372 -7.71448,9.909372 -5.51928,0 -8.21622,-3.710359 -8.21622,-9.909372 z"
       style="font-size:48px;font-family:'ITC Avant Garde Gothic';-inkscape-font-specification:'ITC Avant Garde Gothic, Normal';white-space:pre;fill:#19253e;stroke:#ffffff;stroke-width:0.838935"
       id="path2319" />
    <path
       d="m 470.61109,144.66411 c 0,7.00838 3.44539,11.08861 10.97601,11.08861 6.10326,0 11.22212,-2.97616 11.22212,-9.88854 0,-13.15272 -17.6699,-7.68042 -17.6699,-16.99293 0,-3.79221 2.55943,-5.85632 6.15247,-5.85632 4.62666,0 6.89077,2.49614 6.89077,7.2964 h 3.83915 c 0,-6.57636 -3.83915,-10.46458 -10.23772,-10.46458 -6.15248,0 -10.48382,3.16818 -10.48382,9.36051 0,12.04867 17.66991,7.39241 17.66991,16.80093 0,4.65625 -2.60865,6.57636 -6.98921,6.57636 -5.80794,0 -7.53063,-2.64014 -7.53063,-7.92044 z"
       id="path2322"
       style="font-size:48px;font-family:'ITC Avant Garde Gothic';-inkscape-font-specification:'ITC Avant Garde Gothic, Normal';white-space:pre;fill:#19253e;stroke:#ffffff;stroke-width:0.765471" />
    <path
       d="m 517.48309,129.27999 h -4.30553 l -8.45055,19.52541 -6.72919,-19.52541 h -4.13994 l 8.77156,23.88822 -4.86525,10.74017 h 4.30552 z"
       id="path2324"
       style="font-size:48px;font-family:'ITC Avant Garde Gothic';-inkscape-font-specification:'ITC Avant Garde Gothic, Normal';white-space:pre;fill:#19253e;stroke:#ffffff;stroke-width:0.81013"
       sodipodi:nodetypes="ccccccccc" />
    <path
       d="m 532.69947,136.43708 c -0.0844,-5.29309 -2.95488,-8.18023 -8.02039,-8.18023 -4.22126,0 -7.17613,2.98338 -7.17613,7.31409 0,10.39371 12.24164,5.38933 12.24164,12.60719 0,2.98338 -2.02621,4.33071 -5.14993,4.33071 -2.40612,0 -4.55896,-1.78041 -4.55896,-5.0525 h -3.12373 c 0,5.29309 3.29258,8.22835 7.97817,8.22835 5.0233,0 8.14703,-3.17585 8.14703,-7.98775 0,-9.81629 -12.24165,-5.96676 -12.24165,-12.126 0,-2.79091 1.77293,-4.13824 4.13683,-4.13824 2.87046,0 4.43233,1.82853 4.64339,5.00438 z"
       id="path2326"
       style="font-size:48px;font-family:'ITC Avant Garde Gothic';-inkscape-font-specification:'ITC Avant Garde Gothic, Normal';white-space:pre;fill:#19253e;stroke:#ffffff;stroke-width:0.709751" />
    <path
       d="m 544.09445,131.66304 h 4.69192 v -2.87657 h -4.69192 v -8.1503 h -4.08473 v 8.1503 h -3.80874 v 2.87657 h 3.80874 v 23.49203 h 4.08473 z"
       id="path2328"
       style="font-size:48px;font-family:'ITC Avant Garde Gothic';-inkscape-font-specification:'ITC Avant Garde Gothic, Normal';white-space:pre;fill:#19253e;stroke:#ffffff;stroke-width:0.81013" />
    <path
       d="m 575.66279,143.26147 v -2.24677 c 0,-7.9832 -4.67238,-12.66794 -12.54867,-12.66794 -8.41027,0 -13.34963,5.73642 -13.34963,13.57621 0,8.79585 5.4066,13.67181 13.68338,13.67181 7.07531,0 12.21492,-4.97156 12.21492,-9.5129 h -4.73912 c -0.53399,3.05943 -2.60318,6.35787 -7.40905,6.35787 -5.6736,0 -8.81077,-4.30232 -8.81077,-9.17828 z m -20.95894,-3.15504 c 0.0667,-5.16278 3.80465,-8.60464 8.21004,-8.60464 5.33985,0 7.80954,3.44186 7.80954,8.60464 z"
       id="path2330"
       style="font-size:48px;font-family:'ITC Avant Garde Gothic';-inkscape-font-specification:'ITC Avant Garde Gothic, Normal';white-space:pre;fill:#19253e;stroke:#ffffff;stroke-width:0.889563" />
    <path
       d="m 600.2024,155.15507 v -17.45122 c 0,-3.45189 2.15277,-6.23258 6.78949,-6.23258 3.58794,-0.0479 5.24391,1.86977 5.24391,5.75315 v 17.93065 h 4.08473 v -18.79362 c 0,-5.94492 -3.91913,-8.05441 -9.05265,-8.05441 -3.86393,0 -6.12709,1.10268 -8.11426,3.83543 h -0.1104 c -1.54557,-3.06835 -4.58152,-3.83543 -7.28628,-3.83543 -4.25033,0 -6.73428,1.53417 -7.56227,4.12309 h -0.1104 v -3.64366 h -4.08473 v 26.3686 h 4.08473 v -17.45122 c 0,-3.45189 2.15277,-6.23258 6.78949,-6.23258 3.58794,-0.0479 5.24391,1.86977 5.24391,5.75315 v 17.93065 z"
       id="path2332"
       style="font-size:48px;font-family:'ITC Avant Garde Gothic';-inkscape-font-specification:'ITC Avant Garde Gothic, Normal';white-space:pre;fill:#19253e;stroke:#ffffff;stroke-width:0.81013" />
    <path
       d="m 636.5011,136.44393 c -0.0928,-5.28654 -3.2485,-8.1701 -8.81735,-8.1701 -4.6407,0 -7.8892,2.97969 -7.8892,7.30503 0,10.38084 13.45805,5.38266 13.45805,12.59158 0,2.97968 -2.22754,4.32535 -5.66167,4.32535 -2.6452,0 -5.01196,-1.7782 -5.01196,-5.04625 h -3.43413 c 0,5.28654 3.61976,8.21817 8.77095,8.21817 5.52244,0 8.95656,-3.17192 8.95656,-7.97786 0,-9.80413 -13.45805,-5.95937 -13.45805,-12.11099 0,-2.78744 1.9491,-4.13311 4.54789,-4.13311 3.15568,0 4.87275,1.82626 5.10478,4.99818 z"
       id="path2334"
       style="font-size:48px;font-family:'ITC Avant Garde Gothic';-inkscape-font-specification:'ITC Avant Garde Gothic, Normal';white-space:pre;fill:#19253e;stroke:#ffffff;stroke-width:0.743718" />
    <path
       d="m 658.87562,141.34093 6.1783,-17.70597 h 0.12607 l 6.1783,17.70597 z m -1.26088,3.15836 h 15.00443 l 3.84567,10.62358 h 4.72828 L 668.45828,120.4766 h -6.55656 l -12.48268,34.64627 h 4.41307 z"
       id="path2336"
       style="font-size:48px;font-family:'ITC Avant Garde Gothic';-inkscape-font-specification:'ITC Avant Garde Gothic, Normal';white-space:pre;fill:#19253e;stroke:#ffffff;stroke-width:0.864981" />
    <path
       d="m 688.48243,155.15507 v -17.16356 c 0,-3.40395 2.31836,-6.23258 6.0719,-6.23258 h 1.76637 v -3.45189 c -4.41593,0 -7.01029,0.62326 -8.27986,3.93132 h -0.1104 v -3.45189 h -3.53274 v 26.3686 z"
       id="path2338"
       style="font-size:48px;font-family:'ITC Avant Garde Gothic';-inkscape-font-specification:'ITC Avant Garde Gothic, Normal';white-space:pre;fill:#19253e;stroke:#ffffff;stroke-width:0.81013" />
    <path
       d="m 722.25612,138.16164 c -0.14109,-5.44417 -3.29762,-9.80131 -12.04474,-9.80131 -9.59361,0 -12.93257,5.46692 -12.93257,13.7287 0,8.64382 3.48004,13.49218 12.65041,13.49218 9.09982,0 11.97419,-3.9524 12.6796,-9.63535 l -4.42627,0.0364 c -0.77596,3.58169 -2.61004,6.44705 -7.97117,6.44705 -5.07897,0 -8.60603,-3.43843 -8.60603,-10.45855 0,-6.73358 2.82165,-10.45855 8.60603,-10.45855 5.14952,0 7.26576,3.43843 7.54793,6.68583 z"
       id="path2340"
       style="font-size:48px;font-family:'ITC Avant Garde Gothic';-inkscape-font-specification:'ITC Avant Garde Gothic, Normal';white-space:pre;fill:#19253e;stroke:#ffffff;stroke-width:0.914033"
       sodipodi:nodetypes="csssccssscc" />
    <path
       d="m 730.33617,155.15507 v -17.40328 c 0,-3.356 2.53916,-6.28052 7.17588,-6.28052 3.64314,0 5.63031,2.0136 5.63031,5.84904 v 17.83476 h 4.08473 v -18.88951 c 0,-4.31486 -2.64955,-7.95852 -9.21824,-7.95852 -3.58794,0 -6.0167,0.95886 -7.56228,3.16423 h -0.1104 V 120.4444 h -4.08473 v 34.71067 z"
       id="path2342"
       style="font-size:48px;font-family:'ITC Avant Garde Gothic';-inkscape-font-specification:'ITC Avant Garde Gothic, Normal';white-space:pre;fill:#19253e;stroke:#ffffff;stroke-width:0.81013" />
    <path
       d="m 756.7085,155.15507 v -26.3686 h -4.08473 v 26.3686 z m 0,-30.20404 v -4.31486 h -4.08473 v 4.31486 z"
       id="path2344"
       style="font-size:48px;font-family:'ITC Avant Garde Gothic';-inkscape-font-specification:'ITC Avant Garde Gothic, Normal';white-space:pre;fill:#19253e;stroke:#ffffff;stroke-width:0.81013" />
    <path
       d="m 768.9627,131.66304 h 4.69192 v -2.87657 h -4.69192 v -8.1503 h -4.08474 v 8.1503 h -3.80873 v 2.87657 h 3.80873 v 23.49203 h 4.08474 z"
       id="path2346"
       style="font-size:48px;font-family:'ITC Avant Garde Gothic';-inkscape-font-specification:'ITC Avant Garde Gothic, Normal';white-space:pre;fill:#19253e;stroke:#ffffff;stroke-width:0.81013" />
    <path
       d="m 801.86,143.262 v -2.2477 c 0,-7.98651 -4.55233,-12.6732 -12.22626,-12.6732 -8.1942,0 -13.00667,5.73881 -13.00667,13.58185 0,8.7995 5.2677,13.67749 13.33184,13.67749 6.89353,0 11.90109,-4.97363 11.90109,-9.51686 h -4.61737 c -0.52026,3.06071 -2.53629,6.36052 -7.2187,6.36052 -5.52783,0 -8.58439,-4.30411 -8.58439,-9.1821 z m -20.42046,-3.15634 c 0.065,-5.16493 3.70689,-8.60822 7.99909,-8.60822 5.20267,0 7.6089,3.44329 7.6089,8.60822 z"
       id="path2348"
       style="font-size:48px;font-family:'ITC Avant Garde Gothic';-inkscape-font-specification:'ITC Avant Garde Gothic, Normal';white-space:pre;fill:#19253e;stroke:#ffffff;stroke-width:0.878243" />
    <path
       d="m 832.12579,138.19581 c -0.13617,-5.4474 -3.88117,-9.84356 -12.32446,-9.84356 -9.26036,0 -13.34582,5.35184 -13.34582,13.61852 0,8.64895 4.22163,13.61852 13.07346,13.61852 8.78373,0 12.25637,-3.91832 12.93728,-9.60464 h -4.97063 c -0.749,3.58382 -2.51937,6.45088 -7.69429,6.45088 -4.90254,0 -8.3071,-3.44047 -8.3071,-10.46476 0,-6.73758 2.72365,-10.46476 8.3071,-10.46476 4.97064,0 7.01338,3.44047 7.28573,6.6898 z"
       id="path2350"
       style="font-size:48px;font-family:'ITC Avant Garde Gothic';-inkscape-font-specification:'ITC Avant Garde Gothic, Normal';white-space:pre;fill:#19253e;stroke:#ffffff;stroke-width:0.898284" />
    <path
       d="m 842.23371,131.66304 h 4.69192 v -2.87657 h -4.69192 v -8.1503 h -4.08473 v 8.1503 h -3.80874 v 2.87657 h 3.80874 v 23.49203 h 4.08473 z"
       id="path2353"
       style="font-size:48px;font-family:'ITC Avant Garde Gothic';-inkscape-font-specification:'ITC Avant Garde Gothic, Normal';white-space:pre;fill:#19253e;stroke:#ffffff;stroke-width:0.81013" />
    <path
       d="m 867.75015,128.80056 v 17.38501 c 0,3.35248 -2.72176,6.27393 -7.69195,6.27393 -3.90515,0 -6.03522,-2.01149 -6.03522,-5.8429 v -17.81604 h -4.37849 v 18.86968 c 0,4.31033 2.8401,7.95017 9.88119,7.95017 4.556,0 7.2186,-1.53256 8.10614,-4.11876 h 0.11833 v 3.63983 h 4.3785 v -26.34092 z"
       id="path2355"
       style="font-size:48px;font-family:'ITC Avant Garde Gothic';-inkscape-font-specification:'ITC Avant Garde Gothic, Normal';white-space:pre;fill:#19253e;stroke:#ffffff;stroke-width:0.838315" />
    <path
       d="m 881.31467,155.15507 v -17.16356 c 0,-3.40395 2.31836,-6.23258 6.0719,-6.23258 h 1.76637 v -3.45189 c -4.41593,0 -7.01029,0.62326 -8.27987,3.93132 h -0.11039 v -3.45189 h -3.53274 v 26.3686 z"
       id="path2357"
       style="font-size:48px;font-family:'ITC Avant Garde Gothic';-inkscape-font-specification:'ITC Avant Garde Gothic, Normal';white-space:pre;fill:#19253e;stroke:#ffffff;stroke-width:0.81013" />
    <path
       d="m 914.38903,143.26177 v -2.2473 c 0,-7.98509 -4.60364,-12.67095 -12.36405,-12.67095 -8.28654,0 -13.15324,5.7378 -13.15324,13.57944 0,8.79793 5.32706,13.67506 13.48208,13.67506 6.97121,0 12.03521,-4.97275 12.03521,-9.51517 h -4.66941 c -0.52613,3.06016 -2.56488,6.35939 -7.30004,6.35939 -5.59013,0 -8.68114,-4.30335 -8.68114,-9.18047 z M 893.73844,140.106 c 0.0658,-5.16402 3.74868,-8.6067 8.08925,-8.6067 5.26128,0 7.69464,3.44268 7.69464,8.6067 z"
       id="path2359"
       style="font-size:48px;font-family:'ITC Avant Garde Gothic';-inkscape-font-specification:'ITC Avant Garde Gothic, Normal';white-space:pre;fill:#19253e;stroke:#ffffff;stroke-width:0.883099" />
  </g>
</svg>
