<?xml version="1.0" encoding="UTF-8" standalone="no"?>
<svg
   width="1200"
   height="300"
   version="1.1"
   id="svg1301"
   sodipodi:docname="University_of_Edinburgh_informatics_dark.svg"
   inkscape:version="1.2.2 (b0a8486541, 2022-12-01)"
   xmlns:inkscape="http://www.inkscape.org/namespaces/inkscape"
   xmlns:sodipodi="http://sodipodi.sourceforge.net/DTD/sodipodi-0.dtd"
   xmlns="http://www.w3.org/2000/svg"
   xmlns:svg="http://www.w3.org/2000/svg">
  <sodipodi:namedview
     id="namedview1303"
     pagecolor="#ffffff"
     bordercolor="#000000"
     borderopacity="0.25"
     inkscape:showpageshadow="2"
     inkscape:pageopacity="0.0"
     inkscape:pagecheckerboard="0"
     inkscape:deskcolor="#d1d1d1"
     showgrid="false"
     inkscape:zoom="1.8175092"
     inkscape:cx="66.57463"
     inkscape:cy="97.936232"
     inkscape:window-width="1920"
     inkscape:window-height="1019"
     inkscape:window-x="0"
     inkscape:window-y="0"
     inkscape:window-maximized="1"
     inkscape:current-layer="g21481" />
  <defs
     id="defs1273">
    <rect
       x="636.78684"
       y="177.58522"
       width="716.43993"
       height="191.28843"
       id="rect28518" />
    <rect
       x="364.2603"
       y="148.40981"
       width="753.50372"
       height="123.96835"
       id="rect27668" />
    <clipPath
       clipPathUnits="userSpaceOnUse"
       id="clipPath3693">
      <g
         id="g3697">
        <path
           d="M -77.67013,377.7599 H 374.09864 V -74.008869 H -77.67013 Z"
           id="path3695"
           style="stroke-width:5.4493" />
      </g>
    </clipPath>
    <clipPath
       clipPathUnits="userSpaceOnUse"
       id="clipPath3699">
      <g
         id="g3703">
        <path
           d="M -77.67013,377.7599 H 374.09864 V -74.008869 H -77.67013 Z"
           id="path3701"
           style="stroke-width:5.4493" />
      </g>
    </clipPath>
    <clipPath
       clipPathUnits="userSpaceOnUse"
       id="clipPath3705">
      <g
         id="g3709">
        <path
           d="M -77.67013,377.7599 H 374.09864 V -74.008869 H -77.67013 Z"
           id="path3707"
           style="stroke-width:5.4493" />
      </g>
    </clipPath>
    <clipPath
       clipPathUnits="userSpaceOnUse"
       id="clipPath3711">
      <g
         id="g3715">
        <path
           d="M -77.67013,377.7599 H 374.09864 V -74.008869 H -77.67013 Z"
           id="path3713"
           style="stroke-width:5.4493" />
      </g>
    </clipPath>
    <clipPath
       clipPathUnits="userSpaceOnUse"
       id="clipPath3717">
      <g
         id="g3721">
        <path
           d="M -77.67013,377.7599 H 374.09864 V -74.008869 H -77.67013 Z"
           id="path3719"
           style="stroke-width:5.4493" />
      </g>
    </clipPath>
    <clipPath
       clipPathUnits="userSpaceOnUse"
       id="clipPath3723">
      <g
         id="g3727">
        <path
           d="M -77.67013,377.7599 H 374.09864 V -74.008869 H -77.67013 Z"
           id="path3725"
           style="stroke-width:5.4493" />
      </g>
    </clipPath>
    <clipPath
       clipPathUnits="userSpaceOnUse"
       id="clipPath3729">
      <g
         id="g3733">
        <path
           d="M -77.67013,377.7599 H 374.09864 V -74.008869 H -77.67013 Z"
           id="path3731"
           style="stroke-width:5.4493" />
      </g>
    </clipPath>
    <clipPath
       clipPathUnits="userSpaceOnUse"
       id="clipPath3735">
      <g
         id="g3739">
        <path
           d="M -77.67013,377.7599 H 374.09864 V -74.008869 H -77.67013 Z"
           id="path3737"
           style="stroke-width:5.4493" />
      </g>
    </clipPath>
    <clipPath
       clipPathUnits="userSpaceOnUse"
       id="clipPath3741">
      <g
         id="g3745">
        <path
           d="M -77.67013,377.7599 H 374.09864 V -74.008869 H -77.67013 Z"
           id="path3743"
           style="stroke-width:5.4493" />
      </g>
    </clipPath>
    <clipPath
       clipPathUnits="userSpaceOnUse"
       id="clipPath3747">
      <g
         id="g3751">
        <path
           d="M -77.67013,377.7599 H 374.09864 V -74.008869 H -77.67013 Z"
           id="path3749"
           style="stroke-width:5.4493" />
      </g>
    </clipPath>
    <clipPath
       clipPathUnits="userSpaceOnUse"
       id="clipPath3753">
      <g
         id="g3757">
        <path
           d="M -77.67013,377.7599 H 374.09864 V -74.008869 H -77.67013 Z"
           id="path3755"
           style="stroke-width:5.4493" />
      </g>
    </clipPath>
    <clipPath
       clipPathUnits="userSpaceOnUse"
       id="clipPath3759">
      <g
         id="g3763">
        <path
           d="M -77.67013,377.7599 H 374.09864 V -74.008869 H -77.67013 Z"
           id="path3761"
           style="stroke-width:5.4493" />
      </g>
    </clipPath>
    <rect
       x="636.78687"
       y="177.58522"
       width="1038.0075"
       height="158.11624"
       id="rect28518-9" />
    <clipPath
       id="a">
      <path
         d="m 535.9,212.355 h 82.904 v 82.904 H 535.9 Z"
         id="path21452" />
    </clipPath>
  </defs>
  <path
     d="m 398.5229,238.40096 h 23.40231 v -47.42055 c 0,-5.33873 0,-18.2145 13.39291,-18.2145 12.26506,0 12.26506,11.93364 12.26506,18.05749 v 47.57756 h 23.40232 v -54.48652 c 0,-17.11536 -4.79324,-24.02431 -9.02258,-28.10688 -4.22934,-4.08255 -12.54702,-7.53702 -20.01885,-7.53702 -13.9568,0 -18.89103,8.00809 -21.28766,12.24768 h -0.28195 v -9.26427 H 398.5229 Z"
     id="path934"
     style="font-weight:bold;font-size:85.3333px;font-family:'ITC Avant Garde Gothic';-inkscape-font-specification:'ITC Avant Garde Gothic, Bold';text-align:center;white-space:pre;fill:#ffffff;stroke-width:1.31797" />
  <path
     d="m 488.46675,238.40096 h 23.40233 v -67.3623 h 9.86845 v -19.78471 h -9.86845 v -3.45447 c 0,-7.38003 5.21618,-8.16515 7.18987,-8.16515 h 2.67858 v -19.6277 h -3.38347 c -11.41921,0 -29.88731,2.19831 -29.88731,26.69368 v 4.55364 h -8.74061 v 19.78471 h 8.74061 z"
     id="path936"
     style="font-weight:bold;font-size:85.3333px;font-family:'ITC Avant Garde Gothic';-inkscape-font-specification:'ITC Avant Garde Gothic, Bold';text-align:center;white-space:pre;fill:#ffffff;stroke-width:1.31797" />
  <path
     d="m 527.51761,194.74893 c 0,21.35495 13.67485,46.32138 42.15238,46.32138 28.47751,0 42.15236,-24.96643 42.15236,-46.32138 0,-21.35494 -13.67485,-46.32137 -42.15236,-46.32137 -28.47753,0 -42.15238,24.96643 -42.15238,46.32137 z m 23.40232,0 c 0,-12.71875 8.59965,-21.98302 18.75006,-21.98302 10.15041,0 18.75005,9.26427 18.75005,21.98302 0,12.71876 -8.59964,21.98303 -18.75005,21.98303 -10.15041,0 -18.75006,-9.26427 -18.75006,-21.98303 z"
     id="path938"
     style="font-weight:bold;font-size:85.3333px;font-family:'ITC Avant Garde Gothic';-inkscape-font-specification:'ITC Avant Garde Gothic, Bold';text-align:center;white-space:pre;fill:#ffffff;stroke-width:1.31797" />
  <path
     d="m 624.93334,238.40096 h 23.40233 v -47.89161 c 0,-13.18981 7.61281,-15.70217 18.46809,-16.0162 v -26.22261 c -13.53386,0 -17.62222,8.00809 -19.59592,12.24768 h -0.28194 v -9.26427 h -21.99256 z"
     id="path940"
     style="font-weight:bold;font-size:85.3333px;font-family:'ITC Avant Garde Gothic';-inkscape-font-specification:'ITC Avant Garde Gothic, Bold';text-align:center;white-space:pre;fill:#ffffff;stroke-width:1.31797" />
  <path
     d="m 680.19677,238.40096 h 23.40232 v -46.32138 c 0,-5.18172 0,-19.31367 13.25192,-19.31367 11.70115,0 11.70115,13.50385 11.70115,18.2145 v 47.42055 h 23.40233 V 190.8234 c 0,-4.86767 0,-18.05749 12.96995,-18.05749 11.98307,0 11.98307,12.24769 11.98307,19.31367 v 46.32138 h 23.40244 V 190.8234 c 0,-19.31367 -1.12788,-25.12347 -8.45867,-33.75966 -6.34401,-7.38002 -15.08469,-8.7932 -20.58283,-8.7932 -11.98312,0 -20.01884,7.06596 -24.8121,15.54513 -6.20302,-12.87577 -15.64853,-15.54513 -22.55644,-15.54513 -14.66171,0 -19.73691,8.63619 -21.56962,12.24768 h -0.28196 v -9.26427 h -21.85156 z"
     id="path942"
     style="font-weight:bold;font-size:85.3333px;font-family:'ITC Avant Garde Gothic';-inkscape-font-specification:'ITC Avant Garde Gothic, Bold';text-align:center;white-space:pre;fill:#ffffff;stroke-width:1.31797" />
  <path
     d="m 898.99426,151.25395 h -23.40228 v 9.26427 h -0.28185 c -2.81961,-5.33874 -10.00948,-12.24768 -22.83841,-12.24768 -20.86484,0 -39.33284,17.90046 -39.33284,46.47839 0,24.96646 14.52067,46.63543 39.33284,46.63543 9.16345,0 18.89092,-3.92553 22.83841,-12.40471 h 0.28185 v 9.42131 h 23.40228 z m -62.4531,43.80903 c 0,-9.89236 5.92107,-22.45409 19.31403,-22.45409 13.25186,0 19.73679,11.6196 19.73679,22.14004 0,8.47918 -4.93412,22.29708 -19.59587,22.29708 -14.09774,0 -19.45495,-13.8179 -19.45495,-21.98303 z"
     id="path944"
     style="font-weight:bold;font-size:85.3333px;font-family:'ITC Avant Garde Gothic';-inkscape-font-specification:'ITC Avant Garde Gothic, Bold';text-align:center;white-space:pre;fill:#ffffff;stroke-width:1.31797" />
  <path
     d="m 944.81202,122.20494 h -23.40228 v 29.04901 h -11.56013 v 19.78471 h 11.56013 v 67.3623 h 23.40228 v -67.3623 h 11.27828 v -19.78471 h -11.27828 z"
     id="path946"
     style="font-weight:bold;font-size:85.3333px;font-family:'ITC Avant Garde Gothic';-inkscape-font-specification:'ITC Avant Garde Gothic, Bold';text-align:center;white-space:pre;fill:#ffffff;stroke-width:1.31797" />
  <path
     d="m 989.64299,151.25395 c -9.33362,7.74394 -13.38998,8.30248 -23.40228,10.74884 v 76.39817 h 23.40228 z"
     id="path948"
     sodipodi:nodetypes="ccccc"
     style="font-weight:bold;font-size:85.3333px;font-family:'ITC Avant Garde Gothic';-inkscape-font-specification:'ITC Avant Garde Gothic, Bold';text-align:center;white-space:pre;fill:#ffffff;stroke-width:1.31797" />
  <path
     d="m 1061.8236,205.26938 c -2.5376,5.33873 -7.1899,11.61961 -16.9174,11.61961 -11.1372,0 -18.6091,-9.4213 -18.6091,-22.14006 0,-12.56172 7.4719,-22.76814 18.6091,-22.14004 9.7275,0 14.3798,6.28086 16.9174,12.24768 h 23.6842 c -3.9473,-21.35495 -20.7237,-36.58603 -41.4475,-36.58603 -23.4022,0 -41.3064,20.72685 -41.3064,46.32138 0,25.90856 18.1862,46.63543 41.8703,46.63543 21.1467,0 36.7952,-16.17323 41.0246,-35.95797 z"
     id="path950"
     style="font-weight:bold;font-size:85.3333px;font-family:'ITC Avant Garde Gothic';-inkscape-font-specification:'ITC Avant Garde Gothic, Bold';text-align:center;white-space:pre;fill:#ffffff;stroke-width:1.31797" />
  <path
     d="m 1154.728,175.74931 c -1.9737,-22.92515 -19.7369,-27.47877 -30.0282,-27.47877 -16.2124,0 -30.3102,11.46258 -30.3102,28.73495 0,11.77663 8.4585,19.15664 18.6089,22.76815 14.9438,6.43787 20.7238,7.22299 20.7238,13.97491 0,4.23959 -4.2294,6.75193 -8.1767,6.75193 -0.9868,0 -7.8948,0 -8.8816,-8.00811 h -23.2613 c 2.1146,22.92518 20.0188,28.89199 31.8609,28.89199 17.3403,0 31.8611,-11.30556 31.8611,-29.67708 0,-18.84261 -14.0979,-23.23921 -27.3497,-27.32178 -6.2031,-2.04127 -11.9831,-4.71065 -11.9831,-9.42128 0,-2.35533 1.6917,-5.80982 6.6258,-5.80982 6.9081,0 7.1899,4.71065 7.331,6.59491 z"
     id="path952"
     style="font-weight:bold;font-size:85.3333px;font-family:'ITC Avant Garde Gothic';-inkscape-font-specification:'ITC Avant Garde Gothic, Bold';text-align:center;white-space:pre;fill:#ffffff;stroke-width:1.31797" />
  <circle
     style="font-weight:bold;font-size:85.3333px;font-family:'ITC Avant Garde Gothic';-inkscape-font-specification:'ITC Avant Garde Gothic, Bold';text-align:center;white-space:pre;fill:#ffffff;stroke-width:0.755906;-inkscape-stroke:none;stop-color:#000000"
     id="path1105"
     cx="977.93433"
     cy="136.63867"
     r="12.979902" />
  <g
     id="g454"
     transform="matrix(1.1223539,0,0,1.1223539,-143.08384,16.310166)"
     style="fill:#ffffff">
    <text
       xml:space="preserve"
       id="text28516-2"
       style="font-style:normal;font-variant:normal;font-weight:normal;font-stretch:normal;font-size:53.3333px;font-family:'Lapidary333 BT';-inkscape-font-specification:'Lapidary333 BT, Normal';font-variant-ligatures:normal;font-variant-caps:normal;font-variant-numeric:normal;font-variant-east-asian:normal;text-align:center;white-space:pre;shape-inside:url(#rect28518-9);shape-padding:10.9235;display:inline;fill:#ffffff;fill-opacity:1;stroke-width:0.755906;-inkscape-stroke:none;stop-color:#000000"
       transform="translate(-353.08501,-159.89908)"><tspan
         x="795.04904"
         y="235.69528"
         id="tspan31471">THE UNIVERSITY     EDINBURGH</tspan></text>
    <text
       xml:space="preserve"
       style="font-style:normal;font-variant:normal;font-weight:normal;font-stretch:normal;font-size:53.3333px;font-family:BerthamW01-Italic;-inkscape-font-specification:'BerthamW01-Italic, Normal';font-variant-ligatures:normal;font-variant-caps:normal;font-variant-numeric:normal;font-variant-east-asian:normal;text-align:center;text-anchor:middle;fill:#ffffff;stroke-width:0.755906;-inkscape-stroke:none;stop-color:#000000"
       x="846.71802"
       y="75.796234"
       id="text448"><tspan
         sodipodi:role="line"
         id="tspan446"
         x="846.71802"
         y="75.796234">of</tspan></text>
  </g>
  <path
     d="m 381.61318,151.25395 c -9.33362,7.74394 -13.38998,8.30248 -23.40228,10.74884 v 76.39817 h 23.40228 z"
     id="path948-9"
     sodipodi:nodetypes="ccccc"
     style="font-weight:bold;font-size:85.3333px;font-family:'ITC Avant Garde Gothic';-inkscape-font-specification:'ITC Avant Garde Gothic, Bold';text-align:center;white-space:pre;shape-inside:url(#rect28518);display:inline;fill:#ffffff;stroke-width:1.31797;stop-color:#000000" />
  <g
     id="g1240"
     transform="translate(31.573161,-73.166159)"
     style="fill:#ee293d;fill-opacity:1">
    <circle
       style="font-weight:bold;font-size:85.3333px;font-family:'ITC Avant Garde Gothic';-inkscape-font-specification:'ITC Avant Garde Gothic, Bold';text-align:center;white-space:pre;shape-inside:url(#rect28518);display:inline;fill:#ee293d;fill-opacity:1;stroke-width:0.755906;-inkscape-stroke:none;stop-color:#000000"
       id="path1105-7"
       cx="338.33133"
       cy="209.80482"
       r="12.979902" />
  </g>
  <g
     clip-path="url(#a)"
     transform="matrix(5.0117978,0,0,-5.0117978,-2751.5606,1423.7559)"
     id="g21481">
    <path
       style="fill:#0a335f;fill-opacity:1"
       d="m 588.04,235.184 c 0.289,0.149 0.553,0.351 0.83,0.523 0.236,0.142 0.473,0.287 0.709,0.432 0.211,0.157 0.404,0.337 0.623,0.487 0.227,0.164 0.452,0.331 0.68,0.495 0.048,0.044 0.094,0.091 0.142,0.138 0.053,0.027 0.106,0.057 0.158,0.088 0.194,0.147 0.391,0.322 0.572,0.49 0.145,0.134 0.254,0.289 0.406,0.424 0.151,0.137 0.318,0.262 0.473,0.399 0.065,0.059 0.1,0.124 0.158,0.182 0.125,0.122 0.254,0.239 0.368,0.369 0.079,0.099 0.159,0.195 0.239,0.292 0.283,0.27 0.538,0.569 0.775,0.873 0.192,0.228 0.385,0.459 0.576,0.688 0.127,0.177 0.253,0.357 0.378,0.536 0.066,0.071 0.132,0.141 0.2,0.213 0.206,0.287 0.413,0.574 0.618,0.863 0.061,0.098 0.097,0.2 0.155,0.301 0.045,0.066 0.091,0.133 0.136,0.196 0.041,0.084 0.079,0.169 0.119,0.252 0.139,0.238 0.27,0.477 0.399,0.718 0.109,0.186 0.218,0.371 0.326,0.557 0.09,0.189 0.147,0.386 0.231,0.576 0.095,0.197 0.187,0.396 0.281,0.594 0.318,0.853 0.629,1.708 0.884,2.589 0.019,0.104 0.037,0.211 0.056,0.315 0.069,0.323 0.156,0.655 0.221,0.985 0.02,0.169 0.038,0.339 0.057,0.509 0.047,0.276 0.102,0.573 0.14,0.853 0.019,0.225 0.037,0.452 0.053,0.679 0.018,0.087 0.034,0.176 0.052,0.265 0.011,0.189 0.02,0.379 0.032,0.568 0.01,0.094 0.039,0.183 0.044,0.283 0,0.132 -0.004,0.266 -0.006,0.397 0.06,0.855 0.075,1.784 0.028,2.63 -0.026,0.443 -0.128,0.877 -0.173,1.308 -0.05,0.457 -0.085,0.908 -0.176,1.343 -0.252,1.195 -0.585,2.369 -1.006,3.485 -0.061,0.16 -0.153,0.308 -0.219,0.466 -0.137,0.332 -0.291,0.64 -0.451,0.956 -0.054,0.092 -0.105,0.181 -0.159,0.272 -0.131,0.277 -0.222,0.577 -0.367,0.846 -0.09,0.166 -0.198,0.306 -0.303,0.466 -0.08,0.173 -0.162,0.345 -0.243,0.518 -0.302,0.47 -0.616,0.931 -0.931,1.392 -0.119,0.14 -0.238,0.277 -0.357,0.415 -0.133,0.171 -0.265,0.342 -0.397,0.513 -0.126,0.128 -0.266,0.234 -0.379,0.376 -0.064,0.082 -0.102,0.169 -0.17,0.251 -0.098,0.108 -0.197,0.217 -0.297,0.324 -0.059,0.055 -0.12,0.108 -0.177,0.164 -0.152,0.171 -0.293,0.347 -0.45,0.516 -0.137,0.128 -0.272,0.257 -0.409,0.385 -0.132,0.132 -0.262,0.265 -0.394,0.398 -0.181,0.141 -0.364,0.282 -0.548,0.422 -0.186,0.165 -0.375,0.328 -0.563,0.494 -0.124,0.093 -0.259,0.159 -0.385,0.242 -0.161,0.117 -0.324,0.235 -0.485,0.352 -0.122,0.085 -0.225,0.179 -0.342,0.276 -0.088,0.052 -0.174,0.106 -0.262,0.16 -0.117,0.083 -0.234,0.166 -0.352,0.249 -0.386,0.236 -0.8,0.415 -1.201,0.623 -0.146,0.091 -0.293,0.183 -0.437,0.275 -0.254,0.128 -0.506,0.255 -0.757,0.381 -0.206,0.1 -0.42,0.171 -0.632,0.254 -0.103,0.057 -0.208,0.114 -0.31,0.172 -0.08,0.029 -0.162,0.056 -0.241,0.085 -0.127,0.056 -0.253,0.114 -0.381,0.17 -0.397,0.144 -0.813,0.247 -1.223,0.373 -0.195,0.059 -0.396,0.138 -0.591,0.195 -0.429,0.125 -0.857,0.191 -1.3,0.29 -0.284,0.066 -0.582,0.147 -0.872,0.196 -0.188,0.027 -0.377,0.051 -0.563,0.078 -0.313,0.065 -0.661,0.121 -0.989,0.16 -0.123,0.003 -0.251,0.007 -0.376,0.01 -0.087,0.012 -0.175,0.023 -0.264,0.035 l -0.513,0.009 c -0.381,0.026 -0.787,0.058 -1.191,0.06 -0.156,-0.045 -0.375,-0.018 -0.549,-0.017 -0.207,0 -0.416,0 -0.625,-10e-4 -0.056,-0.01 -0.113,-0.018 -0.17,-0.027 -0.144,-0.004 -0.289,-0.008 -0.433,-0.011 -0.078,-0.018 -0.154,-0.037 -0.231,-0.055 -0.075,-0.011 -0.15,-0.019 -0.226,-0.028 -0.072,0 -0.146,0.006 -0.208,-0.018 -0.043,-0.007 -0.087,-0.013 -0.132,-0.018 -0.093,0 -0.191,0.003 -0.265,-0.036 -0.204,10e-4 -0.505,-0.025 -0.662,-0.111 -0.045,-0.005 -0.089,-0.011 -0.133,-0.018 -0.128,0.002 -0.299,-0.015 -0.398,-0.074 -0.334,0.003 -0.611,-0.139 -0.913,-0.212 -0.161,-0.037 -0.353,-0.055 -0.491,-0.139 -0.131,0.001 -0.275,-0.031 -0.378,-0.092 -0.211,10e-4 -0.394,-0.121 -0.575,-0.191 -0.106,-0.041 -0.239,-0.043 -0.334,-0.107 -0.211,0.001 -0.397,-0.121 -0.571,-0.199 -0.12,-0.051 -0.242,-0.101 -0.361,-0.152 -0.65,-0.274 -1.286,-0.584 -1.91,-0.909 -0.105,-0.069 -0.211,-0.135 -0.317,-0.202 -0.747,-0.379 -1.487,-0.795 -2.149,-1.334 l -0.587,-0.419 c -0.101,-0.092 -0.205,-0.184 -0.306,-0.275 -0.19,-0.14 -0.389,-0.259 -0.572,-0.415 -0.377,-0.318 -0.731,-0.675 -1.08,-1.02 -0.215,-0.194 -0.43,-0.389 -0.645,-0.583 -0.074,-0.085 -0.148,-0.169 -0.22,-0.255 l -0.293,-0.272 c -0.154,-0.157 -0.263,-0.346 -0.411,-0.5 -0.13,-0.131 -0.259,-0.255 -0.376,-0.4 -0.052,-0.072 -0.108,-0.146 -0.161,-0.217 -0.226,-0.255 -0.447,-0.505 -0.641,-0.779 -0.135,-0.208 -0.268,-0.416 -0.402,-0.625 -0.192,-0.248 -0.409,-0.569 -0.559,-0.84 -0.044,-0.089 -0.087,-0.178 -0.131,-0.267 -0.13,-0.215 -0.259,-0.431 -0.39,-0.646 -0.113,-0.225 -0.189,-0.466 -0.302,-0.691 -0.053,-0.089 -0.104,-0.174 -0.157,-0.262 -0.11,-0.203 -0.202,-0.407 -0.319,-0.608 -0.053,-0.131 -0.107,-0.261 -0.161,-0.393 -0.065,-0.133 -0.128,-0.268 -0.193,-0.402 -0.052,-0.155 -0.105,-0.309 -0.157,-0.464 -0.063,-0.167 -0.128,-0.332 -0.192,-0.498 -0.321,-1.037 -0.59,-2.077 -0.81,-3.175 -0.019,-0.207 -0.037,-0.414 -0.055,-0.621 -0.029,-0.24 -0.111,-0.501 -0.131,-0.738 -0.016,-0.184 -0.009,-0.395 -0.061,-0.568 -0.013,-0.145 -0.026,-0.291 -0.04,-0.434 -0.033,-0.888 -0.008,-1.733 0.014,-2.593 0.012,-0.412 0.093,-0.827 0.129,-1.232 0.01,-0.176 0.018,-0.351 0.027,-0.529 0.057,-0.553 0.15,-1.114 0.236,-1.665 0.041,-0.139 0.079,-0.279 0.118,-0.42 0.092,-0.434 0.19,-0.854 0.315,-1.271 0.037,-0.093 0.074,-0.189 0.11,-0.285 0.023,-0.099 0.048,-0.198 0.071,-0.296 0.164,-0.461 0.328,-0.921 0.491,-1.381 0.081,-0.172 0.162,-0.349 0.242,-0.52 0.047,-0.115 0.071,-0.244 0.12,-0.356 0.125,-0.294 0.307,-0.559 0.457,-0.843 0.118,-0.231 0.257,-0.452 0.374,-0.684 0.033,-0.083 0.067,-0.167 0.102,-0.25 0.04,-0.051 0.081,-0.099 0.122,-0.15 0.044,-0.096 0.088,-0.193 0.133,-0.291 0.11,-0.192 0.244,-0.379 0.383,-0.557 0.083,-0.107 0.152,-0.226 0.237,-0.333 0.114,-0.142 0.241,-0.274 0.348,-0.422 0.082,-0.121 0.164,-0.242 0.247,-0.362 0.154,-0.185 0.309,-0.37 0.466,-0.554 0.128,-0.162 0.256,-0.325 0.383,-0.487 0.161,-0.167 0.321,-0.335 0.481,-0.503 0.132,-0.152 0.245,-0.332 0.397,-0.472 0.217,-0.198 0.429,-0.4 0.629,-0.601 0.106,-0.109 0.214,-0.216 0.32,-0.323 0.174,-0.152 0.378,-0.261 0.547,-0.422 l 0.49,-0.472 c 0.12,-0.091 0.238,-0.183 0.356,-0.272 0.146,-0.126 0.271,-0.271 0.429,-0.382 0.19,-0.13 0.368,-0.282 0.566,-0.395 0.132,-0.076 0.273,-0.116 0.398,-0.199 0.149,-0.105 0.294,-0.209 0.443,-0.312 0.144,-0.095 0.309,-0.169 0.457,-0.26 0.559,-0.343 1.122,-0.637 1.708,-0.918 0.257,-0.124 0.502,-0.283 0.779,-0.377 0.253,-0.099 0.504,-0.197 0.757,-0.294 0.093,-0.025 0.186,-0.053 0.277,-0.078 0.249,-0.096 0.496,-0.191 0.744,-0.287 0.067,-0.02 0.133,-0.04 0.201,-0.059 0.214,-0.084 0.426,-0.183 0.65,-0.244 0.27,-0.053 0.539,-0.104 0.809,-0.158 0.402,-0.083 0.822,-0.207 1.232,-0.271 0.15,-0.014 0.299,-0.025 0.452,-0.035 0.199,-0.026 0.399,-0.073 0.606,-0.092 0.157,-0.008 0.312,-0.02 0.471,-0.03 0.102,-0.016 0.203,-0.031 0.303,-0.047 l 0.323,-0.011 c 0.246,-0.037 0.49,-0.074 0.737,-0.111 0.126,-0.007 0.252,-0.011 0.378,-0.017 0.076,0.009 0.153,0.019 0.228,0.027 0.226,-0.002 0.493,-0.027 0.718,-0.037 0.144,-0.004 0.279,0.007 0.417,0 0.283,-0.015 0.552,0.04 0.815,0.078 0.119,0.006 0.239,0.01 0.357,0.014 0.161,0.02 0.335,0.047 0.493,0.061 0.587,0.053 1.154,0.118 1.721,0.231 0.192,0.05 0.383,0.1 0.572,0.151 0.24,0.047 0.478,0.097 0.716,0.145 0.124,0.036 0.234,0.098 0.351,0.146 0.196,0.057 0.389,0.113 0.584,0.172 0.082,0.03 0.165,0.059 0.248,0.089 0.142,0.039 0.269,0.054 0.409,0.096 0.287,0.099 0.572,0.201 0.861,0.301 0.169,0.083 0.34,0.161 0.51,0.243 0.166,0.063 0.333,0.14 0.491,0.213 0.046,0.027 0.091,0.057 0.137,0.083 0.171,0.082 0.351,0.163 0.518,0.25 0.195,0.112 0.39,0.221 0.585,0.332 0.1,0.05 0.21,0.08 0.31,0.132"
       id="path31372" />
    <path
       style="fill:#ffffff;fill-opacity:1"
       d="m 603.508,253.773 c -0.002,-0.199 -0.165,-0.361 -0.364,-0.358 -0.199,0 -0.36,0.162 -0.359,0.362 0.002,0.199 0.165,0.359 0.363,0.358 0.199,-0.001 0.361,-0.163 0.36,-0.362"
       id="path31370" />
    <path
       style="fill:#ffffff;fill-opacity:1"
       d="m 552.291,253.78 c -0.001,-0.2 -0.164,-0.36 -0.363,-0.359 -0.199,0.001 -0.359,0.164 -0.358,0.362 10e-4,0.201 0.164,0.36 0.363,0.36 0.198,-0.002 0.359,-0.164 0.358,-0.363"
       id="path31368" />
    <path
       style="fill:#ffffff;fill-opacity:1"
       d="m 601.781,245.978 1.14,-0.329 c 0.474,-0.137 0.659,-0.063 0.756,0.273 l 0.117,-0.033 -0.41,-1.422 -0.117,0.033 c 0.088,0.302 0.025,0.477 -0.496,0.627 l -2.452,0.708 c -0.468,0.133 -0.653,0.084 -0.755,-0.266 l -0.117,0.033 0.411,1.422 0.116,-0.034 c -0.09,-0.309 -0.008,-0.488 0.494,-0.633 l 1.12,-0.324 0.619,2.143 -1.119,0.324 c -0.481,0.138 -0.656,0.077 -0.753,-0.259 l -0.117,0.033 0.406,1.409 0.117,-0.035 c -0.096,-0.336 0.029,-0.492 0.497,-0.626 l 2.452,-0.707 c 0.467,-0.135 0.656,-0.072 0.755,0.264 l 0.116,-0.032 -0.407,-1.408 -0.116,0.033 c 0.089,0.31 0.024,0.47 -0.499,0.62 l -1.14,0.33"
       id="path31366" />
    <path
       style="fill:#ffffff;fill-opacity:1"
       d="m 601.897,241.251 c -0.065,-0.229 -0.415,-0.871 -0.511,-1.03 -0.938,-1.538 -2.177,-1.487 -2.983,-0.995 -1.24,0.754 -1.363,2.119 -0.839,2.979 0.301,0.496 0.581,0.584 0.746,0.853 0.066,0.109 0.065,0.176 0.002,0.265 l 0.068,0.11 1.031,-0.627 -0.06,-0.098 c -0.721,0.313 -1.363,-0.108 -1.653,-0.585 -0.438,-0.72 -0.141,-1.645 0.818,-2.229 1.025,-0.626 2.155,-0.476 2.66,0.354 0.154,0.251 0.297,0.623 -0.016,0.814 l -0.377,0.229 c -0.427,0.26 -0.64,0.257 -0.815,-0.031 l -0.082,-0.134 -0.104,0.063 0.864,1.417 0.103,-0.063 c -0.208,-0.344 -0.099,-0.534 0.206,-0.72"
       id="path31364" />
    <path
       style="fill:#ffffff;fill-opacity:1"
       d="m 593.711,236.984 0.3,0.304 c 0.443,0.449 1.004,0.468 1.391,0.085 0.336,-0.331 0.48,-0.855 -0.006,-1.348 l -0.352,-0.357 z m 1.455,-1.437 0.231,0.236 c 0.528,0.534 1.365,0.008 2.565,-0.1 l 0.586,0.595 -0.087,0.087 c -0.511,-0.45 -1.654,0.316 -2.543,0.118 0.295,0.553 0.196,0.992 -0.125,1.308 -0.386,0.382 -1.075,0.438 -1.722,-0.218 l -1.181,-1.197 0.087,-0.085 c 0.231,0.234 0.398,0.261 0.78,-0.116 l 1.827,-1.802 c 0.391,-0.387 0.358,-0.564 0.137,-0.788 l 0.087,-0.085 1.033,1.048 -0.086,0.085 c -0.235,-0.238 -0.433,-0.225 -0.788,0.127"
       id="path31362" />
    <path
       style="fill:#ffffff;fill-opacity:1"
       d="m 592.058,231.431 c -0.109,-0.592 -0.371,-0.995 -0.84,-1.267 -0.858,-0.502 -1.558,-0.099 -1.915,0.512 l -1.015,1.743 c -0.275,0.468 -0.453,0.488 -0.73,0.327 l -0.061,0.104 1.277,0.746 0.062,-0.105 c -0.29,-0.169 -0.346,-0.343 -0.083,-0.793 l 1.045,-1.79 c 0.318,-0.544 0.846,-0.756 1.445,-0.407 0.409,0.238 0.647,0.651 0.671,1.178 l -1.245,2.13 c -0.236,0.408 -0.413,0.495 -0.704,0.342 l -0.061,0.105 1.246,0.728 0.064,-0.105 c -0.299,-0.173 -0.323,-0.371 -0.076,-0.796 l 1.288,-2.205 c 0.27,-0.463 0.456,-0.486 0.729,-0.327 l 0.061,-0.104 -0.869,-0.509"
       id="path31360" />
    <path
       style="fill:#ffffff;fill-opacity:1"
       d="m 583.728,229.602 -0.461,1.675 0.393,0.108 c 0.641,0.176 1.041,-0.091 1.178,-0.589 0.136,-0.495 -0.125,-0.924 -0.704,-1.082 z m -0.145,-1.522 c 0.133,-0.483 0.057,-0.66 -0.275,-0.751 l 0.033,-0.118 1.819,0.502 c 0.744,0.205 1.165,0.721 1.001,1.314 -0.144,0.531 -0.683,0.872 -1.324,0.829 l -0.003,0.012 c 0.494,0.33 0.665,0.681 0.547,1.116 -0.139,0.503 -0.687,0.849 -1.638,0.586 l -1.489,-0.409 0.032,-0.116 c 0.33,0.09 0.482,-0.002 0.621,-0.505 z m 0.187,1.371 0.373,0.102 c 0.695,0.19 1.245,-0.081 1.405,-0.66 0.159,-0.578 -0.147,-0.951 -0.548,-1.061 l -0.323,-0.091 c -0.31,-0.084 -0.442,0.02 -0.588,0.551"
       id="path31358" />
    <path
       style="fill:#ffffff;fill-opacity:1"
       d="m 579.442,226.665 -0.121,-0.001 -2.927,3.529 -0.016,-0.001 0.033,-2.874 c 0.004,-0.414 0.17,-0.562 0.542,-0.558 l 0.002,-0.123 -1.245,-0.012 -0.002,0.121 c 0.344,0.003 0.508,0.113 0.5,0.706 l -0.025,2.394 c -0.006,0.459 -0.13,0.713 -0.617,0.751 l -0.002,0.123 1.053,0.011 2.593,-3.161 0.015,0.001 -0.027,2.395 c -0.005,0.537 -0.151,0.67 -0.508,0.666 v 0.122 l 1.235,0.013 0.002,-0.121 c -0.4,-0.005 -0.528,-0.171 -0.522,-0.648"
       id="path31356" />
    <path
       style="fill:#ffffff;fill-opacity:1"
       d="m 572.034,227.987 c -0.108,-0.489 -0.022,-0.663 0.313,-0.737 l -0.026,-0.118 -1.438,0.316 0.026,0.119 c 0.329,-0.072 0.481,0.027 0.594,0.537 l 0.549,2.491 c 0.11,0.503 0.028,0.66 -0.314,0.734 l 0.026,0.121 1.438,-0.318 -0.026,-0.117 c -0.335,0.072 -0.488,-0.054 -0.594,-0.537"
       id="path31354" />
    <path
       style="fill:#ffffff;fill-opacity:1"
       d="m 566.644,233.219 0.708,-0.327 c 1.177,-0.54 1.211,-1.643 0.801,-2.533 -0.467,-1.013 -1.312,-1.393 -2.234,-0.97 l -0.382,0.177 c -0.345,0.159 -0.423,0.329 -0.157,0.907 z m -1.819,-2.648 c -0.211,-0.462 -0.395,-0.535 -0.694,-0.397 l -0.05,-0.11 1.766,-0.815 c 1.46,-0.671 2.45,-0.081 2.88,0.854 0.447,0.968 0.211,2.233 -1.21,2.889 l -1.721,0.792 -0.052,-0.11 c 0.312,-0.144 0.356,-0.339 0.15,-0.785"
       id="path31352" />
    <path
       style="fill:#ffffff;fill-opacity:1"
       d="m 561.978,233.353 -0.095,0.076 c 0.156,0.326 0.133,0.399 -0.193,0.666 l -0.784,0.644 -0.93,-1.133 c -0.127,-0.155 -0.122,-0.261 0.056,-0.406 l 0.552,-0.453 c 0.464,-0.381 0.599,-0.454 1.127,-0.193 l 0.094,-0.078 -0.629,-0.473 -2.283,1.873 0.077,0.093 c 0.249,-0.204 0.423,-0.217 0.767,0.203 l 1.623,1.979 c 0.322,0.393 0.324,0.575 0.054,0.798 l 0.076,0.093 2.284,-1.871 -0.435,-0.531 -0.061,0.05 c 0.214,0.406 0.125,0.525 -0.223,0.81 l -0.911,0.749 -1.112,-1.355 0.885,-0.726 c 0.216,-0.176 0.329,-0.205 0.596,0.03 l 0.094,-0.078"
       id="path31350" />
    <path
       style="fill:#ffffff;fill-opacity:1"
       d="m 554.121,241.251 c -0.435,-0.248 -0.504,-0.428 -0.333,-0.727 l -0.106,-0.061 -0.731,1.28 0.106,0.061 c 0.171,-0.298 0.354,-0.333 0.795,-0.082 l 2.217,1.265 c 0.447,0.256 0.505,0.427 0.335,0.726 l 0.105,0.061 1.392,-2.442 -0.633,-0.36 -0.045,0.08 c 0.384,0.336 0.349,0.454 0.129,0.841 l -0.517,0.906 -1.491,-0.85 0.529,-0.926 c 0.152,-0.266 0.345,-0.288 0.649,-0.157 l 0.056,-0.098 -1,-0.571 -0.056,0.099 c 0.248,0.158 0.325,0.366 0.184,0.616 l -0.535,0.938"
       id="path31348" />
    <path
       style="fill:#ffffff;fill-opacity:1"
       d="m 552.656,248.596 c 1.141,0.328 2.074,-0.043 2.341,-0.97 0.233,-0.81 -0.271,-1.67 -1.508,-2.027 -0.954,-0.274 -2.044,-0.03 -2.329,0.96 -0.255,0.886 0.349,1.707 1.496,2.037 m -0.166,0.607 c -1.169,-0.336 -1.817,-1.52 -1.48,-2.694 0.339,-1.175 1.519,-1.84 2.687,-1.504 1.147,0.331 1.782,1.509 1.446,2.677 -0.346,1.202 -1.485,1.858 -2.653,1.521"
       id="path31346" />
    <path
       style="fill:#ffffff;fill-opacity:1"
       d="m 601.246,258.987 c -0.483,-0.104 -0.616,-0.234 -0.543,-0.576 l -0.118,-0.026 -0.313,1.461 0.119,0.026 c 0.065,-0.309 0.167,-0.476 0.741,-0.354 l 1.258,0.269 1.145,1.138 c 0.382,0.374 0.447,0.513 0.393,0.829 l 0.119,0.026 0.335,-1.566 -0.119,-0.025 c -0.094,0.441 -0.258,0.456 -0.469,0.244 l -1.047,-1.052 1.142,-0.42 c 0.358,-0.129 0.654,-0.08 0.582,0.257 l 0.119,0.024 0.235,-1.097 -0.119,-0.026 c -0.087,0.304 -0.193,0.391 -0.591,0.539 l -1.612,0.598"
       id="path31344" />
    <path
       style="fill:#ffffff;fill-opacity:1"
       d="m 599.631,263.968 c -0.449,-0.206 -0.534,-0.348 -0.389,-0.666 l -0.11,-0.051 -0.603,1.319 0.11,0.052 c 0.121,-0.267 0.27,-0.388 0.785,-0.152 l 2.84,1.301 -0.247,0.539 c -0.229,0.501 -0.477,0.663 -0.882,0.517 l -0.051,0.11 0.852,0.391 0.05,-0.111 c -0.021,-0.073 -0.028,-0.146 -0.012,-0.249 0.02,-0.094 0.06,-0.217 0.132,-0.373 l 0.893,-1.95 c 0.15,-0.324 0.257,-0.455 0.408,-0.528 l 0.054,-0.117 -0.852,-0.39 -0.033,0.072 c 0.28,0.214 0.444,0.439 0.173,1.031 l -0.259,0.564"
       id="path31342" />
    <path
       style="fill:#ffffff;fill-opacity:1"
       d="m 597.591,267.684 c -0.412,-0.285 -0.465,-0.47 -0.27,-0.753 l -0.1,-0.068 -0.839,1.21 0.1,0.069 c 0.191,-0.276 0.37,-0.309 0.799,-0.011 l 2.098,1.453 c 0.422,0.293 0.47,0.465 0.27,0.753 l 0.1,0.068 0.839,-1.21 -0.099,-0.069 c -0.196,0.282 -0.395,0.292 -0.801,0.011"
       id="path31340" />
    <path
       style="fill:#ffffff;fill-opacity:1"
       d="m 597.244,272.067 -0.085,0.086 c 0.386,0.471 0.254,0.943 -0.036,1.238 -0.301,0.306 -0.686,0.36 -0.955,0.094 -0.54,-0.532 0.049,-1.416 0.042,-2.245 -0.003,-0.405 -0.136,-0.636 -0.33,-0.827 -0.458,-0.451 -1.196,-0.445 -1.647,0.013 -0.306,0.311 -0.409,0.721 -0.505,0.818 -0.049,0.051 -0.122,0.051 -0.223,10e-4 l -0.085,0.088 0.791,0.777 0.083,-0.087 c -0.533,-0.536 -0.275,-1.156 -0.025,-1.41 0.347,-0.352 0.782,-0.385 1.097,-0.075 0.504,0.497 -0.034,1.513 -0.028,2.16 0.002,0.353 0.135,0.625 0.365,0.852 0.449,0.441 1.069,0.42 1.536,-0.053 0.306,-0.311 0.34,-0.569 0.45,-0.681 0.045,-0.045 0.066,-0.046 0.157,0.004 l 0.079,-0.082"
       id="path31338" />
    <path
       style="fill:#ffffff;fill-opacity:1"
       d="m 591.844,277.486 0.357,-0.235 c 0.526,-0.347 0.652,-0.893 0.354,-1.347 -0.258,-0.393 -0.744,-0.639 -1.324,-0.257 l -0.418,0.275 z m -1.125,-1.707 0.275,-0.181 c 0.627,-0.413 0.274,-1.337 0.401,-2.534 l 0.7,-0.46 0.066,0.102 c -0.539,0.415 -0.012,1.685 -0.378,2.517 0.6,-0.181 1.01,0.002 1.258,0.378 0.298,0.455 0.22,1.14 -0.55,1.647 l -1.402,0.924 -0.067,-0.102 c 0.275,-0.18 0.333,-0.338 0.037,-0.786 l -1.412,-2.144 c -0.302,-0.459 -0.482,-0.46 -0.745,-0.287 l -0.067,-0.101 1.23,-0.811 0.067,0.101 c -0.281,0.186 -0.306,0.382 -0.03,0.799"
       id="path31336" />
    <path
       style="fill:#ffffff;fill-opacity:1"
       d="m 587.191,277.21 -0.114,0.042 c 0.039,0.359 -0.007,0.421 -0.402,0.566 l -0.954,0.349 -0.503,-1.377 c -0.07,-0.188 -0.03,-0.286 0.185,-0.365 l 0.672,-0.245 c 0.564,-0.207 0.715,-0.231 1.128,0.189 l 0.113,-0.042 -0.437,-0.654 -2.773,1.014 0.042,0.114 c 0.302,-0.11 0.47,-0.066 0.657,0.444 l 0.879,2.404 c 0.175,0.477 0.117,0.65 -0.213,0.771 l 0.042,0.114 2.774,-1.014 -0.236,-0.645 -0.074,0.027 c 0.067,0.455 -0.055,0.537 -0.478,0.692 l -1.108,0.406 -0.601,-1.646 1.074,-0.392 c 0.262,-0.096 0.379,-0.086 0.553,0.223 l 0.115,-0.041"
       id="path31334" />
    <path
       style="fill:#ffffff;fill-opacity:1"
       d="m 580.73,277.289 -0.113,0.016 -0.818,3.462 c -0.125,0.521 -0.2,0.726 -0.579,0.792 l 0.015,0.119 1.475,-0.195 -0.017,-0.121 c -0.289,0.039 -0.452,-0.099 -0.373,-0.434 l 0.643,-2.753 1.278,2.403 c 0.173,0.331 0.139,0.56 -0.229,0.609 l 0.017,0.12 1.183,-0.157 -0.018,-0.128 c -0.304,0.041 -0.562,-0.164 -0.841,-0.689"
       id="path31332" />
    <path
       style="fill:#ffffff;fill-opacity:1"
       d="m 576.591,278.316 c 0.025,-0.499 0.154,-0.643 0.496,-0.626 l 0.005,-0.121 -1.471,-0.074 -0.005,0.122 c 0.335,0.017 0.458,0.152 0.432,0.672 l -0.128,2.55 c -0.024,0.514 -0.145,0.644 -0.495,0.626 l -0.006,0.122 1.47,0.074 0.006,-0.122 c -0.343,-0.017 -0.456,-0.18 -0.431,-0.673"
       id="path31330" />
    <path
       style="fill:#ffffff;fill-opacity:1"
       d="m 573.251,277.225 -0.118,-0.03 -3.681,2.732 -0.014,-0.003 0.714,-2.785 c 0.102,-0.402 0.298,-0.507 0.659,-0.414 l 0.03,-0.118 -1.205,-0.309 -0.03,0.118 c 0.331,0.086 0.465,0.23 0.317,0.805 l -0.594,2.32 c -0.113,0.443 -0.295,0.663 -0.776,0.583 l -0.032,0.118 1.02,0.261 3.27,-2.454 0.013,0.004 -0.594,2.32 c -0.132,0.519 -0.304,0.614 -0.651,0.527 l -0.03,0.117 1.199,0.307 0.029,-0.117 c -0.388,-0.1 -0.471,-0.291 -0.353,-0.755"
       id="path31328" />
    <path
       style="fill:#ffffff;fill-opacity:1"
       d="m 566.755,275.605 c -0.118,-0.592 -0.387,-0.989 -0.86,-1.256 -0.865,-0.488 -1.559,-0.074 -1.905,0.542 l -0.99,1.758 c -0.267,0.473 -0.444,0.497 -0.724,0.338 l -0.06,0.106 1.29,0.726 0.059,-0.106 c -0.293,-0.165 -0.351,-0.337 -0.095,-0.791 l 1.017,-1.807 c 0.31,-0.549 0.836,-0.769 1.439,-0.429 0.412,0.232 0.657,0.641 0.688,1.168 l -1.21,2.149 c -0.231,0.411 -0.406,0.501 -0.699,0.352 l -0.059,0.107 1.257,0.708 0.06,-0.106 c -0.299,-0.169 -0.328,-0.365 -0.085,-0.794 l 1.253,-2.225 c 0.262,-0.466 0.449,-0.493 0.723,-0.338 l 0.059,-0.106 -0.877,-0.495"
       id="path31326" />
    <path
       style="fill:#ffffff;fill-opacity:1"
       d="m 559.081,270.989 -0.078,-0.093 c -0.323,0.158 -0.398,0.136 -0.667,-0.188 l -0.65,-0.78 1.125,-0.938 c 0.154,-0.129 0.26,-0.124 0.407,0.052 l 0.458,0.55 c 0.383,0.461 0.458,0.594 0.201,1.124 l 0.078,0.094 0.469,-0.632 -1.889,-2.269 -0.094,0.077 c 0.206,0.247 0.22,0.421 -0.197,0.769 l -1.967,1.639 c -0.389,0.324 -0.573,0.328 -0.797,0.06 l -0.094,0.076 1.891,2.269 0.527,-0.439 -0.051,-0.061 c -0.404,0.217 -0.524,0.131 -0.813,-0.216 l -0.754,-0.906 1.345,-1.121 0.733,0.879 c 0.178,0.214 0.209,0.329 -0.025,0.597 l 0.079,0.093"
       id="path31324" />
    <path
       style="fill:#ffffff;fill-opacity:1"
       d="m 554.238,264.254 1.067,-0.521 c 0.443,-0.216 0.638,-0.176 0.791,0.14 l 0.11,-0.054 -0.65,-1.33 -0.109,0.053 c 0.139,0.283 0.108,0.464 -0.38,0.703 l -2.294,1.12 c -0.437,0.212 -0.629,0.195 -0.789,-0.133 l -0.108,0.054 0.648,1.329 0.109,-0.054 c -0.141,-0.288 -0.091,-0.479 0.378,-0.709 l 1.047,-0.51 0.978,2.004 -1.048,0.511 c -0.448,0.22 -0.631,0.189 -0.784,-0.126 l -0.109,0.054 0.642,1.317 0.109,-0.054 c -0.154,-0.314 -0.056,-0.489 0.381,-0.702 l 2.294,-1.119 c 0.437,-0.213 0.635,-0.183 0.788,0.132 l 0.109,-0.053 -0.642,-1.317 -0.109,0.053 c 0.141,0.288 0.104,0.458 -0.385,0.697 l -1.066,0.52"
       id="path31322" />
    <path
       style="fill:#ffffff;fill-opacity:1"
       d="m 554.022,259.707 c 0.482,-0.107 0.634,-0.046 0.712,0.295 l 0.118,-0.026 -0.317,-1.416 -0.119,0.026 c 0.065,0.286 0.019,0.473 -0.533,0.595 l -3.049,0.683 -0.129,-0.58 c -0.12,-0.536 -0.021,-0.815 0.388,-0.944 l -0.025,-0.118 -0.914,0.204 0.026,0.119 c 0.062,0.045 0.111,0.1 0.16,0.191 0.042,0.086 0.083,0.209 0.121,0.376 l 0.468,2.093 c 0.078,0.348 0.073,0.518 -0.004,0.668 l 0.028,0.126 0.913,-0.205 -0.017,-0.077 c -0.351,-0.002 -0.618,-0.081 -0.76,-0.716 l -0.136,-0.607"
       id="path21457" />
    <path
       fill="#fcd213"
       d="m 577.313,234.303 h -0.02 v 0.02 c -0.029,0 -0.042,0.036 -0.06,0.057 -0.072,0.116 -0.146,0.233 -0.219,0.35 -0.153,0.178 -0.307,0.357 -0.46,0.538 -0.459,0.436 -0.997,0.81 -1.56,1.053 -0.117,0.042 -0.236,0.087 -0.351,0.129 -0.13,0.056 -0.248,0.13 -0.384,0.18 -0.125,0.047 -0.262,0.062 -0.395,0.086 -0.136,0.026 -0.275,0.065 -0.416,0.095 -0.289,0.059 -0.579,0.146 -0.873,0.198 -0.283,0.036 -0.565,0.07 -0.849,0.107 -0.226,0.011 -0.443,0.007 -0.661,0.028 -1.026,0.104 -2.039,0.203 -3.029,0.363 -0.338,0.056 -0.669,0.058 -0.999,0.117 -0.329,0.058 -0.658,0.154 -0.97,0.252 -0.174,0.055 -0.351,0.095 -0.518,0.159 -0.165,0.074 -0.329,0.148 -0.494,0.222 -0.114,0.052 -0.228,0.103 -0.341,0.153 -0.079,0.05 -0.159,0.102 -0.238,0.153 -0.038,0.021 -0.076,0.041 -0.114,0.062 -0.271,0.217 -0.484,0.518 -0.692,0.781 -0.16,0.204 -0.244,0.442 -0.32,0.688 -0.036,0.121 -0.074,0.243 -0.112,0.365 -0.12,0.566 -0.108,1.158 -0.114,1.777 -0.009,0.121 -0.02,0.239 -0.03,0.361 0.016,0.46 0.044,0.926 0.054,1.381 -0.004,0.101 -0.007,0.201 -0.012,0.302 0.003,0.46 0.006,0.92 0.008,1.381 0.003,0.303 0.026,0.602 0.023,0.889 -0.013,1.24 0.01,2.495 0.037,3.748 -0.01,0.176 -0.019,0.352 -0.03,0.53 -10e-4,0.196 0.02,0.38 0.02,0.566 -0.003,0.088 -0.005,0.177 -0.008,0.266 0.025,0.282 0.048,0.567 0.071,0.851 0.005,0.22 -0.014,0.436 -0.014,0.642 0.002,0.156 0.025,0.312 0.018,0.474 -0.005,0.13 -0.035,0.253 -0.032,0.398 0.006,0.118 0.014,0.239 0.019,0.36 -0.003,0.24 -0.018,0.502 -0.013,0.756 0.003,0.146 0.023,0.3 0.02,0.455 -0.004,0.167 -0.037,0.334 -0.032,0.51 0.019,0.208 0.038,0.416 0.058,0.624 0.005,0.203 -0.013,0.398 -0.012,0.588 0.003,0.424 0.022,0.883 0.024,1.324 0.003,0.089 0.007,0.176 0.009,0.264 -0.007,0.19 -0.019,0.379 -0.028,0.568 0.015,0.164 0.028,0.329 0.045,0.493 0.016,0.787 0.014,1.597 0.031,2.366 10e-4,0.264 10e-4,0.528 0.002,0.793 -0.007,0.187 -0.035,0.369 -0.031,0.569 0.008,0.125 0.014,0.253 0.022,0.378 0.003,0.664 -0.012,1.329 -0.008,2.006 10e-4,0.245 0.022,0.465 0.021,0.701 -0.004,0.265 -0.014,0.552 -0.013,0.832 0.001,0.181 0.02,0.359 0.022,0.549 10e-4,0.15 -0.029,0.361 0.021,0.491 10e-4,0.038 0.045,0.031 0.076,0.035 0.273,0.038 0.616,0.074 0.908,0.028 0.36,-0.055 0.722,0.003 1.099,0.001 0.333,-0.002 0.668,-0.002 1.003,-0.003 0.202,0.011 0.402,0.021 0.605,0.032 0.377,-0.002 0.728,-0.024 1.096,-0.022 0.444,0.004 0.923,0.011 1.385,0.008 0.131,-0.006 0.262,-0.012 0.397,-0.017 0.186,0.01 0.377,0.018 0.566,0.028 0.158,-0.003 0.306,-0.036 0.473,-0.036 0.213,-0.002 0.405,0.018 0.605,0.012 0.311,-0.005 0.645,-0.007 0.966,-0.025 0.151,-0.013 0.302,-0.023 0.453,-0.035 0.446,0.005 0.908,0.023 1.345,0.028 0.297,-0.009 0.593,-0.016 0.89,-0.025 0.251,0.003 0.499,0.052 0.755,0.05 0.181,-0.001 0.379,-0.018 0.568,-0.019 0.172,0.003 0.341,0.006 0.512,0.008 0.195,-0.016 0.391,-0.03 0.586,-0.047 0.152,0.007 0.304,0.015 0.455,0.022 0.296,-0.012 0.592,-0.022 0.889,-0.033 0.139,0.011 0.278,0.021 0.417,0.033 0.807,0.02 1.568,10e-4 2.384,0.008 0.178,0.01 0.353,0.022 0.531,0.032 0.363,0.01 0.747,-0.015 1.096,0.01 0.077,0.007 0.152,0.015 0.228,0.022 0.303,-0.031 0.658,10e-4 0.984,-0.007 0.135,-0.001 0.246,-0.034 0.377,-0.038 0.146,0.006 0.292,0.009 0.435,0.014 0.234,-0.008 0.503,-0.036 0.738,-0.034 0.164,10e-4 0.322,0.033 0.494,0.028 0.12,-0.01 0.239,-0.022 0.359,-0.033 0.168,-0.002 0.357,0.021 0.53,0.007 0.119,-0.018 0.239,-0.035 0.36,-0.053 0.1,0.004 0.201,0.009 0.303,0.013 0.106,-0.006 0.212,-0.012 0.322,-0.017 0.106,0.003 0.213,0.01 0.32,0.015 0.203,0.003 0.397,-0.02 0.587,-0.008 0.308,0.024 0.611,-0.022 0.927,-0.019 0.153,0.01 0.302,0.02 0.454,0.03 l 0.303,-0.015 c 0.096,-10e-4 0.214,0.011 0.293,-0.021 0.007,-0.005 0.015,-0.013 0.023,-0.017 0.067,-0.1 0.043,-0.284 0.041,-0.42 -0.002,-0.431 -0.023,-0.85 -0.004,-1.266 0.01,-0.264 0.006,-0.566 0.009,-0.834 -0.005,-0.087 -0.009,-0.176 -0.014,-0.263 0.007,-0.191 0.015,-0.378 0.022,-0.567 -0.011,-0.191 -0.021,-0.38 -0.032,-0.57 0.015,-0.246 0.032,-0.492 0.046,-0.738 -0.01,-0.093 -0.021,-0.189 -0.032,-0.284 -0.006,-0.164 0.027,-0.314 0.025,-0.473 -0.009,-0.164 -0.02,-0.328 -0.03,-0.492 -10e-4,-0.201 -0.005,-0.403 -0.009,-0.604 -0.009,-0.151 -0.022,-0.304 -0.032,-0.454 0.018,-0.247 0.036,-0.493 0.051,-0.738 -0.006,-0.089 -0.015,-0.178 -0.023,-0.266 -0.007,-0.204 -0.023,-0.41 -0.02,-0.606 0.004,-0.35 0.033,-0.74 0.037,-1.078 -0.009,-0.076 -0.019,-0.151 -0.025,-0.228 0.005,-0.157 0.012,-0.313 0.018,-0.471 -0.01,-0.182 -0.026,-0.388 -0.028,-0.589 0,-0.146 0.032,-0.272 0.028,-0.416 -0.01,-0.076 -0.018,-0.152 -0.03,-0.227 0.005,-0.099 0.009,-0.201 0.012,-0.301 -0.01,-0.38 -0.044,-0.747 -0.039,-1.137 0.006,-0.189 0.01,-0.378 0.019,-0.568 0.009,-0.076 0.018,-0.151 0.028,-0.227 -0.004,-0.127 -0.011,-0.251 -0.016,-0.378 0.004,-0.081 0.009,-0.164 0.012,-0.245 l -0.033,-0.417 c 0,-0.188 0.047,-0.387 0.039,-0.587 -0.02,-0.553 -0.05,-1.075 -0.054,-1.628 -10e-4,-0.223 0.034,-0.42 0.033,-0.643 l -0.036,-0.359 c -0.002,-0.258 -0.005,-0.517 -0.009,-0.776 -0.012,-0.139 -0.024,-0.277 -0.037,-0.416 0.007,-0.524 0.015,-1.047 0.022,-1.57 -0.002,-0.365 -0.039,-0.751 -0.035,-1.117 0.008,-0.195 0.019,-0.391 0.027,-0.588 -0.004,-0.076 -0.009,-0.151 -0.014,-0.227 -10e-4,-0.139 -0.002,-0.276 -0.004,-0.416 -0.002,-0.338 0.015,-0.678 0.014,-1.003 -0.003,-0.391 10e-4,-0.815 -0.008,-1.229 -0.006,-0.114 -0.01,-0.226 -0.014,-0.34 0.007,-0.07 0.017,-0.138 0.026,-0.208 -0.012,-0.241 -0.025,-0.48 -0.035,-0.719 -0.005,-0.203 0.024,-0.416 0.01,-0.624 -0.023,-0.127 -0.047,-0.254 -0.068,-0.381 -0.018,-0.137 -0.035,-0.275 -0.053,-0.412 -0.047,-0.236 -0.219,-0.573 -0.343,-0.774 -0.109,-0.172 -0.289,-0.267 -0.427,-0.405 -0.084,-0.081 -0.178,-0.135 -0.264,-0.208 -0.162,-0.138 -0.323,-0.284 -0.506,-0.381 -0.117,-0.044 -0.233,-0.087 -0.35,-0.13 -0.236,-0.097 -0.472,-0.203 -0.714,-0.295 -0.223,-0.083 -0.458,-0.146 -0.68,-0.229 -0.052,-0.02 -0.111,-0.041 -0.167,-0.059 -0.122,0.002 -0.285,-0.054 -0.379,-0.112 -0.106,0.001 -0.217,-0.011 -0.303,-0.054 -0.16,0.001 -0.275,-0.046 -0.406,-0.095 -0.041,-0.012 -0.082,-0.024 -0.124,-0.035 -0.065,0 -0.139,-0.008 -0.19,-0.037 -0.127,0.002 -0.419,-0.057 -0.511,-0.111 -0.113,0 -0.247,0.021 -0.341,-0.017 -0.065,0 -0.14,-0.007 -0.19,-0.037 -0.102,0.002 -0.222,0.013 -0.304,-0.034 -0.048,-0.007 -0.101,-0.014 -0.151,-0.02 -0.08,0 -0.165,-0.003 -0.226,-0.036 -0.071,0 -0.153,-0.008 -0.209,-0.037 -0.132,0.002 -0.329,0.022 -0.436,-0.037 -0.051,-0.004 -0.101,-0.01 -0.152,-0.016 -0.127,0.001 -0.287,0.048 -0.397,-0.017 -0.076,0 -0.165,0.011 -0.228,-0.017 -0.038,-0.008 -0.075,-0.013 -0.112,-0.018 -0.122,0 -0.276,0.023 -0.379,-0.017 -0.051,-0.007 -0.101,-0.013 -0.152,-0.019 -0.038,-0.005 -0.075,-0.012 -0.113,-0.017 -0.039,-0.008 -0.077,-0.014 -0.113,-0.019 -0.057,-0.006 -0.115,-0.011 -0.171,-0.019 -0.079,0.002 -0.165,-0.002 -0.228,-0.036 -0.051,-0.004 -0.1,-0.012 -0.151,-0.018 -0.085,0 -0.182,0.003 -0.246,-0.036 -0.082,0 -0.167,-0.001 -0.227,-0.037 -0.066,0 -0.141,-0.008 -0.19,-0.036 -0.06,0 -0.124,-0.009 -0.171,-0.038 -0.037,-0.005 -0.075,-0.012 -0.113,-0.019 -0.097,0.002 -0.226,-0.028 -0.303,-0.073 -0.063,0 -0.124,-0.009 -0.172,-0.038 -0.198,0.002 -0.369,-0.088 -0.537,-0.153 -0.129,-0.048 -0.259,-0.095 -0.39,-0.143 -0.254,0.001 -0.523,-0.234 -0.71,-0.389 -0.164,-0.134 -0.375,-0.201 -0.536,-0.352 -0.449,-0.417 -0.72,-0.977 -0.943,-1.519"
       id="path21459"
       style="fill:#ffffff" />
    <path
       id="path21461"
       d="m 567.98809,268.29326 c -0.0579,1.4e-4 -0.11306,-0.006 -0.15806,-0.0262 -0.068,10e-4 -0.14788,0.01 -0.20788,-0.019 -0.134,0.003 -0.31997,0.0309 -0.43297,-0.0151 -0.12,0.001 -0.30328,0.0309 -0.39928,-0.0151 -0.447,0.001 -0.9219,0.0232 -1.3989,0.0262 -0.139,0 -0.33584,0.0309 -0.45484,-0.0161 -0.172,0 -0.54906,0.0359 -0.68206,-0.0151 -0.1,0 -0.27522,0.0282 -0.34122,-0.0358 -0.106,-0.1 -0.0477,-0.59705 -0.0437,-0.75805 -0.004,-0.125 -0.0101,-0.25213 -0.0151,-0.37813 0.004,-0.115 0.0209,-0.23478 0.008,-0.35878 v -0.5301 c -0.018,-0.483 -0.0221,-0.94508 -0.0251,-1.43904 -0.001,-0.134 -0.033,-0.23406 -0.038,-0.35806 -0.005,-0.133 0.0232,-0.25913 0.0222,-0.37813 -0.016,-0.121 -0.0302,-0.24093 -0.0452,-0.36093 0.007,-0.251 0.0109,-0.50383 0.0179,-0.75483 -0.017,-0.43 -0.0359,-0.89122 -0.0319,-1.34622 0.007,-0.17596 0.013,-0.35194 0.019,-0.52794 0.007,-0.057 0.0149,-0.11397 0.0219,-0.17097 -0.015,-0.107 -0.0269,-0.21478 -0.0419,-0.32078 0.009,-0.771 -0.0118,-1.50829 -0.0168,-2.29029 -0.002,-0.34 0.016,-0.65293 0.009,-0.98493 -0.012,-0.163 -0.0241,-0.32711 -0.0351,-0.49211 0.004,-0.246 0.008,-0.49198 0.014,-0.73798 -0.003,-0.489 -0.024,-0.99596 -0.019,-1.49496 0.008,-0.176 0.0149,-0.35174 0.0229,-0.52974 -0.011,-0.227 -0.0228,-0.453 -0.0358,-0.681 -0.005,-0.895 0.011,-1.82405 0.019,-2.72505 0.002,-0.224 -0.0381,-0.411 -0.0391,-0.643 -0.002,-0.239 -0.003,-0.47927 -0.003,-0.71827 0.004,-0.109 0.009,-0.21593 0.014,-0.32293 -0.018,-0.814 -0.0451,-1.59583 -0.0491,-2.42183 -0.003,-0.374 -0.0438,-0.70012 -0.0448,-1.05912 0,-0.158 7.1e-4,-0.31504 7.1e-4,-0.47204 0.008,-0.063 0.0182,-0.12596 0.0262,-0.18996 -0.01,-0.063 -0.02,-0.12581 -0.029,-0.18781 -0.009,-0.182 -0.0198,-0.3751 -0.0208,-0.5491 -0.002,-0.222 0.004,-0.46806 0.0118,-0.70106 0.005,-0.105 0.034,-0.19294 0.034,-0.30394 -10e-4,-0.111 -0.0341,-0.19514 -0.0351,-0.30214 -0.002,-0.13 0.033,-0.22386 0.033,-0.35986 -0.006,-0.97696 0.005,-1.91911 0.4491,-2.66411 0.305,-0.508 0.86683,-0.82909 1.37883,-1.04909 0.354,-0.153 0.71721,-0.32771 1.10321,-0.41971 0.285,-0.066 0.56702,-0.10204 0.86702,-0.15304 0.226,-0.04 0.46199,-0.098 0.69999,-0.12402 0.227,-0.018 0.45399,-0.035 0.68099,-0.052 0.486,-0.059 0.96304,-0.14501 1.45804,-0.20501 0.232,-0.012 0.46484,-0.0241 0.69784,-0.0341 0.101,-0.023 0.20194,-0.043 0.30394,-0.067 0.182,-0.004 0.3663,-0.005 0.5473,-0.01 0.195,-0.018 0.39173,-0.0349 0.58673,-0.0559 0.101,-0.003 0.20015,-0.007 0.30215,-0.0111 0.089,-0.021 0.17694,-0.042 0.26594,-0.062 0.251,-0.039 0.48519,-0.067 0.73619,-0.11505 0.077,-0.025 0.15482,-0.0498 0.23082,-0.0778 0.173,-0.049 0.32911,-0.0902 0.49211,-0.15519 0.238,-0.086 0.47708,-0.17307 0.71504,-0.25807 0.174,-0.088 0.34479,-0.17392 0.52079,-0.26092 0.09,-0.063 0.18498,-0.1241 0.27598,-0.1871 0.19,-0.109 0.37796,-0.20283 0.55196,-0.34479 0.213,-0.174 0.3603,-0.38602 0.5473,-0.58602 0.061,-0.069 0.0939,-0.15894 0.17491,-0.20394 0,-0.031 0.0101,-0.0201 0.0391,-0.0201 0,0.033 0.0937,0.0931 0.11971,0.12509 0.041,0.061 0.079,0.12072 0.119,0.18172 0.414,0.606 1.02723,1.0393 1.65123,1.3713 0.099,0.033 0.19296,0.0678 0.28996,0.10179 0.116,0.048 0.23281,0.0969 0.34981,0.14695 0.23,0.069 0.47204,0.11223 0.71504,0.16523 0.454,0.098 0.89409,0.21683 1.34909,0.31183 0.112,0.008 0.22512,0.0149 0.33512,0.0229 0.178,0.032 0.34904,0.0762 0.53404,0.0932 0.239,0.009 0.47999,0.016 0.71899,0.024 0.288,0.022 0.58203,0.0829 0.87203,0.10287 0.26,0.02 0.51874,0.029 0.77274,0.062 0.23,0.036 0.45694,0.0731 0.68494,0.11111 0.075,0.005 0.15101,0.0119 0.22401,0.0179 0.353,0.057 0.69309,0.13999 1.03009,0.21899 0.114,0.027 0.22405,0.0401 0.33405,0.0731 0.324,0.095 0.63903,0.22086 0.95303,0.32186 0.265,0.086 0.52109,0.16621 0.76809,0.27921 0.216,0.098 0.39605,0.236 0.59605,0.362 0.358,0.224 0.74795,0.46277 0.97095,0.83977 0.098,0.168 0.18871,0.41605 0.21971,0.61505 0.007,0.093 0.0141,0.18786 0.0201,0.28386 0.068,0.408 0.0591,0.85614 0.0541,1.28314 0.008,0.152 0.0121,0.30319 0.0201,0.45519 -0.006,0.082 -0.0101,0.16487 -0.0151,0.24587 0,0.163 -7e-5,0.32704 -10e-4,0.49104 -0.01,0.063 -0.0179,0.12596 -0.0269,0.18996 0.007,0.056 0.0131,0.11289 0.0201,0.16989 -0.007,0.057 -0.0131,0.11425 -0.0211,0.17025 0.002,0.113 0.033,0.20385 0.033,0.32185 10e-4,0.126 -0.032,0.21886 -0.033,0.34086 -10e-4,0.145 0.0361,0.25113 0.0401,0.39713 0.009,0.496 0.004,0.98704 0.0229,1.47704 -0.004,0.12 -0.009,0.23805 -0.0133,0.35805 0.003,0.436 0.005,0.871 0.007,1.305 0.025,1.185 0.01,2.45 0.0369,3.634 -0.008,0.125 -0.0129,0.25177 -0.0219,0.37777 -0.005,0.039 -0.009,0.0753 -0.015,0.11326 0.006,0.093 0.0259,0.20086 0.0219,0.30286 -0.007,0.07 -0.0139,0.13896 -0.0219,0.20896 0.004,0.097 0.029,0.19486 0.028,0.30286 -0.003,0.219 -0.055,0.40508 -0.053,0.62508 0,0.149 0.022,0.27913 0.033,0.41613 l -0.006,0.20788 c 0.009,0.068 0.0187,0.14024 0.0298,0.20824 -0.01,0.082 -0.0188,0.16287 -0.0298,0.24587 0.011,0.094 0.0198,0.18887 0.0308,0.28387 -0.003,0.085 -0.029,0.15523 -0.029,0.24623 0.002,0.517 0.006,1.03388 0.009,1.55088 0,0.118 0.0311,0.20893 0.0351,0.32293 0.003,0.112 -0.032,0.19615 -0.028,0.30215 0.009,0.057 0.02,0.11389 0.028,0.16989 0.008,0.171 0.0158,0.3411 0.0258,0.5111 -0.004,0.26 -0.006,0.54297 -0.0168,0.81397 -0.009,0.088 -0.0199,0.17587 -0.0319,0.26487 -10e-4,0.213 0.0371,0.40108 0.0341,0.60608 -0.009,0.157 -0.0192,0.31404 -0.0272,0.47204 0.006,1.219 -0.041,2.38879 0.005,3.59779 0.003,0.66 0.007,1.32328 0.0111,1.98528 0.012,0.359 -0.0139,0.74976 -0.0179,1.09676 -0.004,0.356 0.004,0.6782 0.007,1.0412 h -0.0208 c 0,0.04 -0.17717,0.0161 -0.20717,10e-4 -0.353,0.005 -0.70705,0.0107 -1.05805,0.0147 -0.229,0.02 -0.45678,0.0353 -0.70178,0.0333 -0.068,0 -0.15124,0.008 -0.20824,-0.0183 -0.087,-0.008 -0.17387,-0.0178 -0.26487,-0.0258 -0.125,0.015 -0.25185,0.031 -0.37885,0.0469 -0.442,0.004 -0.88199,0.006 -1.32399,0.009 -0.124,10e-4 -0.4461,0.0409 -0.5301,0.004 -0.227,0.002 -0.45399,0.005 -0.68099,0.007 -0.171,0.012 -0.41802,0.085 -0.58602,0.019 -0.05,-0.006 -0.10189,-0.012 -0.15089,-0.019 -0.164,0.002 -0.32918,0.004 -0.49318,0.007 -0.244,0.016 -0.48199,0.056 -0.73799,0.057 -0.189,-0.054 -0.461,0.037 -0.643,-0.034 -0.051,-0.007 -0.10089,-0.0119 -0.15089,-0.0179 -0.195,10e-4 -0.39109,0.003 -0.58709,0.003 -0.095,0 -0.22486,0.0177 -0.30286,-0.0183 -0.06,0.001 -0.14232,0.007 -0.19032,-0.0179 -0.162,0.001 -0.29876,0.0351 -0.45376,0.0401 -0.389,10e-4 -0.78102,0.005 -1.17202,0.008 -0.143,0 -0.35304,0.0312 -0.47204,-0.0168 -0.045,-0.006 -0.0891,-0.0113 -0.13405,-0.0183 l -0.17096,-0.0179 c -0.22,10e-4 -0.58598,0.11693 -0.77598,0.0419 -0.037,-0.006 -0.0749,-0.0118 -0.1129,-0.0168 -0.083,0 -0.18123,-0.002 -0.24623,-0.0369 -0.564,0.002 -1.12693,0.006 -1.66593,0.0169 -0.143,0.005 -0.29312,-0.003 -0.43512,-0.002 -0.067,0 -0.16687,0.0268 -0.22687,-0.003 -0.139,0.003 -0.27613,0.004 -0.41613,0.006 -0.193,0.014 -0.61997,0.0901 -0.79497,0.0201 -0.127,0.002 -0.25177,0.004 -0.37777,0.005 -0.083,0.007 -0.18494,0.0299 -0.26594,-0.001 -0.112,0 -0.26214,0.0208 -0.35914,-0.0172 -0.226,0.002 -0.424,0.0403 -0.662,0.0423 -0.075,0 -0.16387,0.008 -0.22687,-0.0183 -0.14,0.001 -0.33712,0.0312 -0.45412,-0.0158 -0.215,0.001 -0.429,8.7e-4 -0.643,0.003 -0.102,10e-4 -0.24022,0.0202 -0.32222,-0.0168 -0.271,-0.002 -0.54189,-0.003 -0.81289,-0.004 -0.173,0.012 -0.50507,0.0758 -0.66307,0.0118 -0.17,10e-4 -0.46573,0.0599 -0.60573,0.004 -0.358,0.002 -0.68828,0.0232 -1.04228,0.0462 -0.0775,0.006 -0.18132,0.0248 -0.27777,0.0251 z m 8.75578,-0.39713 c 0.119,-0.04 0.4233,-0.0352 0.5663,-0.0412 0.003,-0.084 0.007,-0.16502 0.0108,-0.24802 0.014,-0.063 0.0289,-0.12481 0.0419,-0.18781 -0.011,-0.068 -0.0237,-0.13817 -0.0337,-0.20717 -0.008,-0.3 -0.0453,-0.59795 -0.0613,-0.88995 0.011,-0.182 0.0211,-0.36609 0.0301,-0.54909 h -0.0168 v 0.019 c -0.241,0.002 -0.51804,0.73808 -0.61504,0.90608 -0.054,0.093 -0.13715,0.15401 -0.20215,0.24301 -0.135,0.19 -0.38104,0.67819 -0.17204,0.89819 0.071,0.075 0.34296,0.026 0.45196,0.057 z m -1.35302,-0.006 c 0.0616,-6.2e-4 0.1208,-0.007 0.1663,-0.0287 0.269,-0.132 0.35902,-0.52503 0.46702,-0.77203 0.07,-0.16 0.16486,-0.31598 0.24086,-0.47598 0.052,-0.085 0.0999,-0.16912 0.15089,-0.25412 0.034,-0.086 0.0461,-0.1778 0.0491,-0.27777 10e-4,-0.07 0.014,-0.20299 -0.053,-0.23799 -0.053,-0.028 -0.13402,-0.0153 -0.18602,0.006 -0.098,0.037 -1.45908,1.72803 -1.46808,1.81503 v 0.0161 c 0,0.004 0.002,0.0101 0.002,0.0151 0.001,0.005 0.002,0.008 0.003,0.0129 0.04,0.115 0.33923,0.11714 0.44623,0.17814 0.056,-5e-4 0.12009,0.004 0.18172,0.004 z m -1.37274,-0.0168 c 0.142,-0.022 0.22595,-0.0639 0.32795,-0.16487 0.15,-0.145 0.27784,-0.3178 0.39784,-0.4878 0.062,-0.085 0.0972,-0.18205 0.17025,-0.26702 0.094,-0.101 0.18879,-0.20115 0.28279,-0.30215 0.084,-0.106 0.1679,-0.21084 0.2509,-0.31684 0.032,-0.046 0.0601,-0.0912 0.0921,-0.1362 0.059,-0.054 0.12,-0.10678 0.181,-0.15878 0.127,-0.121 0.24296,-0.27403 0.30896,-0.42903 -0.03,0.001 -0.0289,-0.0322 -0.0369,-0.0552 -0.104,0 -0.23094,0.037 -0.30394,0.096 -0.122,0.122 -0.24294,0.24704 -0.36594,0.37204 -0.078,0.077 -0.1692,0.10885 -0.2362,0.19785 -0.131,0.174 -0.22788,0.38198 -0.38888,0.53798 -0.091,0.09 -0.22413,0.10806 -0.31613,0.19606 l -0.009,0.009 c -0.099,0.102 -0.13284,0.24096 -0.21684,0.35196 -0.096,0.124 -0.23409,0.21105 -0.32509,0.33405 -0.004,0.009 -0.009,0.0182 -0.0129,0.0262 -0.002,0.004 -0.002,0.009 -0.004,0.014 -0.017,0.108 0.13394,0.14979 0.20394,0.18279 z m 5.99883,-0.014 c 0.074,0 0.14988,-7.2e-4 0.22688,-7.2e-4 0,-0.094 -0.12381,-0.1903 -0.16881,-0.2663 -0.064,-0.103 -0.12489,-0.21075 -0.18889,-0.31075 -0.072,-0.099 -0.14714,-0.19892 -0.22114,-0.29892 -0.051,-0.077 -0.0688,-0.1652 -0.13083,-0.2362 -0.045,-0.035 -0.0913,-0.0718 -0.13727,-0.10681 -0.042,-0.048 -0.0827,-0.093 -0.12473,-0.13799 -0.042,-0.039 -0.0842,-0.08 -0.12724,-0.11899 -0.077,-0.094 -0.0769,-0.23119 -0.17992,-0.31219 -0.092,-0.07 -0.25613,-0.11906 -0.37813,-0.0771 h -0.0387 c 10e-4,0.057 0.24973,0.44204 0.30573,0.49104 0.052,0.046 0.12825,0.049 0.17025,0.10896 0.037,0.055 0.0308,0.1222 0.0638,0.1792 0.039,0.068 0.11401,0.09 0.14301,0.16703 0.031,0.096 0.0301,0.20267 0.0781,0.29067 0.059,0.117 0.20698,0.14632 0.29498,0.22832 0.081,0.075 0.097,0.1767 0.162,0.2577 0.067,0.087 0.15789,0.10201 0.25089,0.14301 z m 0.87096,-0.005 c 0.136,-0.014 0.26297,-0.0339 0.41397,-0.0409 v -0.0559 c -0.2,0.002 -0.73771,-0.66719 -0.86271,-0.83619 -0.058,-0.079 -0.12807,-0.23594 -0.22007,-0.28494 -0.055,-0.027 -0.12023,-0.004 -0.16523,0.024 -0.13,0.08 -0.0317,0.2209 0.004,0.3129 0.025,0.06 0.0299,0.12804 0.0799,0.17204 0.053,0.025 0.10176,0.0511 0.15376,0.0771 0.075,0.056 0.14829,0.11411 0.22329,0.17311 0.079,0.085 0.12383,0.18908 0.19283,0.28208 0.059,0.059 0.11893,0.1177 0.17993,0.1767 z m -2.15803,-0.006 c 0.101,-10e-4 0.20107,-10e-4 0.30107,-0.002 v -0.038 c -0.029,0 -0.0289,-0.0161 -0.0409,-0.0351 -0.148,-0.208 -0.22424,-0.44885 -0.32724,-0.67885 -0.048,-0.083 -0.097,-0.16581 -0.14301,-0.24981 -0.038,-0.091 -0.078,-0.18212 -0.11397,-0.27312 -0.098,-0.183 -0.34401,-0.49519 -0.55698,-0.53619 v 0.0201 c -0.033,0 -0.0208,0.17209 -0.0258,0.20609 -0.015,0.084 -0.0479,0.15403 -0.0369,0.24803 0.009,0.103 0.063,0.17007 0.062,0.28207 -0.005,0.14 -0.0861,0.27505 -0.053,0.41505 0.023,0.092 0.11286,0.15366 0.14086,0.24766 0.032,0.11 -0.008,0.20311 0.0692,0.29211 0.08,0.092 0.56772,0.0181 0.72472,0.10215 z m 1.03116,-1.44514 c 0.201,-0.176 -0.10803,-0.45701 -0.22903,-0.58601 v -0.0179 h -0.057 c 0,0.062 -9.5e-4,0.12509 -0.004,0.18709 0.028,0.189 0.18396,0.27484 0.28996,0.41684 z m -2.93795,-1.0989 c 0.062,-0.018 0.15806,-0.0182 0.19606,-0.0792 0.107,-0.166 -0.39099,-0.50596 -0.53799,-0.48996 -0.161,0.018 -0.24721,0.21116 -0.36021,0.30716 v 0.057 c 0.039,0.01 0.0781,0.0201 0.11506,0.0301 0.237,0.035 0.39008,0.0689 0.58708,0.17491 z m 1.11683,-0.0842 c 0.126,-0.024 0.21403,-0.0889 0.32903,-0.13692 0.13,-0.054 0.26399,-0.0849 0.39999,-0.13691 0.029,-0.01 0.0399,-0.0438 0.0319,-0.0738 -0.029,-0.081 -0.116,-0.12108 -0.181,-0.16308 -0.064,-0.038 -0.13893,-0.14225 -0.22293,-0.13225 -0.116,0.014 -0.16307,0.16619 -0.23907,0.23619 -0.084,0.081 -0.25876,0.11983 -0.23476,0.27383 0.008,0.062 0.0628,0.095 0.11684,0.11398 z m -2.06484,-0.32688 c 0.237,-0.156 0.43094,-0.43182 0.18494,-0.68278 -0.05,-0.05 -0.12798,-0.11732 -0.19498,-0.12832 -0.222,-0.032 -0.12818,0.23927 -0.13118,0.35627 -0.003,0.088 -0.0277,0.16887 -0.0487,0.24587 10e-4,0 0.13696,0.16489 0.18996,0.18889 z m 3.34905,-0.0391 c 0.142,-0.044 0.1338,-0.12977 0.1828,-0.25877 0.09,-0.237 0.15396,-0.47204 -0.091,-0.65304 -0.047,-0.033 -0.0898,-0.0731 -0.15376,-0.0731 -0.066,0.001 -0.093,0.0432 -0.11398,0.0982 -0.015,0.048 -0.0102,0.65882 0.007,0.71182 0.02,0.066 0.12217,0.1219 0.16917,0.1749 z m -1.87416,-0.008 c 0.068,-0.007 0.13399,-0.0149 0.19999,-0.0219 0.118,-0.038 0.4962,-0.34318 0.4552,-0.49318 -0.036,-0.132 -0.16207,-0.2098 -0.25807,-0.3068 -0.099,-0.097 -0.22007,-0.21103 -0.36307,-0.22903 -0.142,-0.018 -0.34392,0.61479 -0.31792,0.72579 0.013,0.051 0.23487,0.27809 0.28387,0.30609 z m -0.81684,-0.65698 c 0.162,-0.077 0.63079,-0.42185 0.58279,-0.64085 -0.022,-0.094 -0.14009,-0.1782 -0.20609,-0.2362 -0.074,-0.063 -0.16996,-0.174 -0.27096,-0.181 -0.079,-0.006 -0.11674,0.0492 -0.16774,0.0932 -0.125,0.108 -0.21404,0.33088 -0.17204,0.50788 0.03,0.053 0.0559,0.10685 0.0849,0.15985 0.051,0.153 0.0301,0.17913 0.1491,0.29713 z m -1.23009,-0.0889 c 0.136,-0.045 0.41215,-0.35931 0.14015,-0.42831 -0.185,-0.045 -0.14515,0.31131 -0.14015,0.42831 z m 2.95086,-0.16702 c 0.054,-0.007 0.10828,-0.014 0.16128,-0.019 0.164,-0.06 0.3048,-0.30003 0.2448,-0.47203 -0.034,-0.093 -0.13784,-0.17413 -0.21684,-0.23513 -0.055,-0.043 -0.13426,-0.10707 -0.21326,-0.10107 -0.11,0.011 -0.0628,0.24516 -0.0358,0.30716 0.038,0.086 0.13709,0.10992 0.14409,0.21792 0.008,0.126 -0.0852,0.18315 -0.0842,0.30215 z m 1.40105,-0.23405 h 0.0172 c 0,-0.137 -0.0721,-0.28621 -0.19212,-0.34121 -10e-4,-0.028 -0.0659,0.0121 -0.0939,0.0211 0,0.137 0.17781,0.23707 0.26881,0.32007 z m -3.82611,-0.22724 c 0.036,-0.01 0.0711,-0.0207 0.1061,-0.0297 0.091,-0.055 0.4211,-0.3701 0.4301,-0.4681 0.012,-0.106 -0.26699,-0.30214 -0.35699,-0.32114 -0.075,-0.015 -0.0959,0.061 -0.11792,0.11505 -0.087,0.218 -0.15129,0.45497 -0.0613,0.70393 z m 1.43833,-0.12078 c 0.061,-0.002 0.11071,-0.006 0.15771,-0.0351 0.055,-0.035 0.43708,-0.40408 0.44408,-0.44408 0.026,-0.143 -0.30507,-0.36094 -0.42007,-0.38494 -0.053,-0.01 -0.0818,0.0389 -0.11684,0.0609 -0.043,0.029 -0.095,0.0363 -0.13298,0.0803 -0.097,0.106 -0.0682,0.21887 -0.0742,0.36487 -0.004,0.074 -0.018,0.1682 0.01,0.2362 0.024,0.061 0.0833,0.0889 0.13225,0.12186 z m 1.586,-0.40609 c 0.101,-0.007 0.17495,-0.0118 0.22795,-0.0968 0.018,0 0.0119,-0.004 -10e-4,-0.0172 0,-0.087 -0.24522,-0.24102 -0.32222,-0.16702 -0.107,0.104 0.0273,0.214 0.0953,0.281 z m -2.3272,-0.19498 c 0.045,-0.006 0.0839,-0.008 0.11792,-0.0351 0.067,-0.05 0.0861,-0.12502 0.13512,-0.18602 0.073,-0.093 0.18212,-0.13884 0.21612,-0.25484 h -0.019 c 0,-0.032 -0.0681,-0.0131 -0.0921,-0.006 -0.28596,0.06 -0.59505,0.13307 -0.35805,0.48207 z m 1.51288,-0.15985 c 0.08,-0.022 0.25404,-0.1133 0.23404,-0.2233 -0.025,-0.138 -0.33974,-0.19567 -0.44874,-0.12867 -0.16,0.1 0.1467,0.29897 0.2147,0.35197 z m -4.42395,-2.56699 0.90715,-0.009 c 0.214,-0.01 0.44587,-0.0532 0.64587,-0.10322 0.132,-0.024 0.26311,-0.0481 0.39211,-0.0731 0.118,-0.04 0.23187,-0.0797 0.34587,-0.11971 0.433,-0.163 0.83804,-0.30824 1.13404,-0.70824 0.156,-0.211 0.11995,-0.50593 0.14695,-0.78493 0.073,-0.832 0.0171,-1.72088 10e-4,-2.55588 -0.012,-0.535 -0.008,-1.06393 -0.028,-1.60893 0.005,-0.188 0.009,-0.37902 0.0129,-0.56702 -0.003,-0.444 -0.0287,-0.89014 -0.0437,-1.32614 -0.011,-0.306 -0.0172,-0.58988 -0.0552,-0.86988 -0.035,-0.247 -0.0231,-0.44093 -0.14409,-0.64193 v -0.0172 c -0.042,0 -0.50695,0.35988 -0.58995,0.40788 -0.231,0.136 -0.63578,0.29123 -0.90178,0.34623 -0.227,0.049 -0.44413,0.0399 -0.67813,0.0799 -0.183,0.03 -0.67303,0.1309 -0.85303,0.0509 -0.043,-0.005 -0.0869,-0.01 -0.1319,-0.0179 -0.064,0 -0.13696,-0.0101 -0.18996,-0.0351 -0.064,0 -0.13625,-0.013 -0.18925,-0.038 -0.069,0 -0.13888,0.001 -0.20788,0.002 10e-4,0.178 0.0331,0.34011 0.0341,0.51111 0.001,0.14398 -0.0482,0.27576 -0.0462,0.43476 0.012,0.163 0.0254,0.32703 0.0384,0.49103 0.007,0.333 -0.0183,0.64793 -0.0133,0.98493 0.015,0.163 0.0261,0.32703 0.0401,0.49103 0.008,0.396 0.015,0.8131 0.024,1.1921 0.004,0.196 -0.0701,0.36409 -0.0631,0.54909 0.017,0.259 0.035,0.51798 0.052,0.77598 0.003,0.309 0.006,0.61787 0.008,0.92687 0.003,0.528 0.0253,1.03994 0.0283,1.55194 0,0.131 -0.03,0.47515 0.028,0.56415 0.059,0.089 0.20577,0.0751 0.29677,0.11613 z m 7.11495,-0.11505 c 0.133,-0.001 0.25413,-0.0253 0.37813,-0.0323 0.105,-0.006 0.20907,0.0143 0.30107,-0.0287 0.053,-10e-4 0.0409,-0.12833 0.0409,-0.17133 -0.008,-0.129 -0.0329,-0.2699 -0.0129,-0.3939 0.02,-0.109 0.0381,-0.21608 0.0591,-0.32508 0.019,-0.348 0.0118,-0.69777 0.0168,-1.05877 l 0.015,-0.43798 c -0.003,-0.456 -0.0291,-0.94319 -0.0251,-1.41719 0.011,-0.115 0.022,-0.22785 0.033,-0.34085 0.007,-0.269 -10e-5,-0.53297 -0.006,-0.79497 -0.003,-0.137 -0.0238,-0.28012 -0.0308,-0.41612 -0.013,-0.233 10e-4,-0.46199 -0.0118,-0.69999 -0.01,-0.1 -0.0212,-0.20087 -0.0312,-0.30287 -0.004,-0.193 0.011,-0.40108 0.009,-0.60608 -0.011,-0.164 -0.0218,-0.32803 -0.0308,-0.49103 0.007,-0.285 0.0537,-0.61695 0.006,-0.90895 -0.101,0.027 -0.20279,0.0511 -0.30179,0.0771 -0.203,0.051 -0.6721,0.14201 -0.8731,0.043 -0.037,-0.008 -0.0739,-0.013 -0.1129,-0.019 -0.043,-0.006 -0.0862,-0.0122 -0.13118,-0.0172 -0.106,0 -0.33992,-0.0429 -0.41792,-0.0939 -0.275,0.003 -0.38512,-0.0762 -0.59712,-0.18817 -0.175,-0.093 -0.36391,-0.14979 -0.53691,-0.24479 -0.196,-0.108 -0.38311,-0.2699 -0.59211,-0.3509 0,-0.04 -0.0577,0.0429 -0.0667,0.0609 -0.187,0.371 -0.17404,0.96974 -0.17204,1.43474 0.002,0.176 -0.029,0.33211 -0.028,0.49211 0.007,0.057 0.0128,0.11425 0.0208,0.17025 -0.008,0.097 -0.0149,0.19094 -0.0229,0.28494 -0.004,0.348 0.016,0.70677 0.009,1.03977 -0.007,0.348 -0.0291,0.71719 -0.0161,1.07919 0.009,0.233 0.003,0.49906 0.0251,0.73906 0.012,0.1 0.0241,0.20079 0.0351,0.30179 0.003,0.259 0.004,0.5179 0.007,0.7749 0.013,0.176 0.026,0.35417 0.038,0.53117 0.012,0.355 0.0112,0.69993 0.0602,1.02293 0.02,0.136 0.022,0.26617 0.10896,0.36917 0.113,0.137 0.27286,0.22107 0.42186,0.30107 0.606,0.322 1.26126,0.42383 1.96126,0.55483 0.153,0.028 0.32768,0.0131 0.47168,0.0631 z m -7.79774,-0.20394 c 0.038,-0.145 0.0171,-0.34103 10e-4,-0.49103 -0.019,-0.182 -0.0311,-0.3731 -0.0251,-0.56809 0.011,-0.125 0.022,-0.25185 0.033,-0.37885 10e-4,-0.239 0.002,-0.48027 0.004,-0.71827 -0.008,-0.109 -0.0182,-0.21494 -0.0262,-0.32294 l 0.015,-0.37813 c -0.008,-0.335 -0.0258,-0.71691 -0.0168,-1.06091 0.01,-0.373 -0.0412,-0.76704 -0.0312,-1.13404 l 0.033,-0.41683 c 0.002,-0.284 0.004,-0.56789 0.005,-0.85089 -0.009,-0.133 -0.0198,-0.2652 -0.0308,-0.3982 l -0.003,-0.66092 c -10e-4,-0.267 0.0348,-0.73713 -0.0412,-0.95913 -0.025,-0.071 -0.11197,-0.11677 -0.15197,-0.17777 -0.061,-0.084 -0.12287,-0.16812 -0.18387,-0.25412 l -0.18422,-0.17491 c -0.063,-0.119 -0.12574,-0.24121 -0.18674,-0.36021 h -0.0183 v -0.019 h -0.0197 c 10e-4,0.357 -0.053,0.74119 -0.057,1.09819 -0.004,0.21 0.0317,0.43885 0.0437,0.64085 0.008,0.157 -0.0317,0.28998 -0.0298,0.43798 0.003,0.17 0.037,0.34995 0.038,0.52795 -0.013,0.196 -0.023,0.39109 -0.033,0.58709 -0.004,0.324 0.0339,0.63387 0.0409,0.94587 -0.01,0.18999 -0.021,0.38016 -0.029,0.56916 0.005,0.144 0.0111,0.28905 0.0161,0.43405 -0.011,0.145 -0.023,0.29191 -0.033,0.43691 0.002,0.235 0.0699,0.44092 0.0749,0.67992 -0.008,0.132 -0.0192,0.26627 -0.0312,0.39927 0.006,0.075 0.009,0.14981 0.0151,0.22581 0.01,0.281 0.0442,0.54688 0.0452,0.83188 10e-4,0.193 -0.0299,0.48906 0.0201,0.65806 0.051,0.176 0.56794,0.76324 0.74694,0.83224 z m 8.98697,-0.33405 c 0.049,-0.133 0.031,-0.29511 0.033,-0.45411 0.004,-0.294 -0.0269,-0.62196 0.0731,-0.87096 h 0.0559 c 0.013,0.057 0.0239,0.11389 0.0369,0.16989 0.016,0.318 0.0521,0.60623 0.0631,0.92723 h 0.0179 v 0.019 h 0.0609 c 0.007,-0.039 0.017,-0.0761 0.028,-0.11506 0.009,-0.074 0.015,-0.15016 0.024,-0.22616 0.004,-0.439 -0.038,-0.91398 -0.033,-1.36198 0.011,-0.083 0.018,-0.16603 0.028,-0.24803 0.003,-0.12 -0.0589,-0.22676 -0.0319,-0.35376 0.022,-0.09 0.0871,-0.11307 0.17814,-0.10107 0.007,0.07 0.0121,0.13988 0.0201,0.20788 -0.003,0.075 -0.004,0.15188 -0.006,0.22688 0.012,0.133 0.0799,0.2462 0.0839,0.3982 0.008,0.394 -0.0118,0.8021 0.0262,1.1731 h 0.057 v -0.0183 c 0.034,-10e-4 0.0189,-0.1708 0.0229,-0.2068 0.005,-0.097 0.0111,-0.19102 0.0161,-0.28602 0.014,-0.171 0.0457,-0.3521 0.0477,-0.5301 0.004,-0.307 -0.0199,-0.60687 -0.0229,-0.92687 -0.002,-0.311 -0.0219,-0.60895 -0.0219,-0.90895 l 0.0151,-0.58708 c -0.004,-0.122 -0.0381,-0.22014 -0.0351,-0.34014 0.009,-0.076 0.02,-0.15096 0.029,-0.22796 10e-4,-0.189 -10e-4,-0.37801 -10e-4,-0.56701 -0.013,-0.246 -0.027,-0.49191 -0.043,-0.73691 -10e-4,-0.232 0.0401,-0.44407 0.0351,-0.68207 -0.004,-0.161 -0.0519,-0.30004 -0.0559,-0.45304 0.021,-0.147 0.0427,-0.29198 0.0627,-0.43798 0.025,-0.22 -0.007,-0.46485 -0.014,-0.67885 -0.008,-0.202 0.014,-0.40616 -0.062,-0.56916 h -0.076 c 0.008,0.051 0.0151,0.10017 0.0211,0.15017 -0.029,0.262 -0.054,0.55776 -0.053,0.83476 l 0.006,1.11719 c 0.005,0.09 0.008,0.17787 0.014,0.26487 -0.006,0.215 -0.0589,0.43507 -0.0609,0.64407 -0.002,0.093 0.0249,0.16288 0.0319,0.24588 0.015,0.236 0.0308,0.52418 -0.002,0.75518 -0.013,0.092 -0.0549,0.15204 -0.12293,0.21004 h -0.0169 c 0,-0.032 -0.0549,-0.0621 -0.0659,-0.0971 -0.03,-0.102 -0.0302,-0.22091 -0.0312,-0.33691 -0.002,-0.221 -0.007,-0.439 0.0201,-0.643 0.019,-0.122 0.0619,-0.2572 0.0609,-0.3982 -0.016,-0.101 -0.0309,-0.20294 -0.0459,-0.30394 -0.015,-0.15 -0.028,-0.30296 -0.043,-0.45196 0.008,-0.153 0.0169,-0.30384 0.0219,-0.45484 -10e-4,-0.32 -0.013,-0.67293 -0.033,-0.98493 -0.086,0 -0.0989,0.13598 -0.11792,0.19498 -0.031,0.102 -0.007,0.20784 -0.0179,0.31684 -0.023,0.197 -0.01,0.41708 -0.009,0.62508 0.002,0.189 0.003,0.3781 0.006,0.5681 0.012,0.24199 0.0552,0.46898 0.0172,0.69998 -0.01,0.066 -0.026,0.17778 -0.1,0.19678 -0.035,0.011 -0.0593,2.5e-4 -0.0702,-0.0298 -0.067,-0.185 -0.0248,-0.42707 -0.0208,-0.62007 0.009,-0.30899 -0.0292,-0.61094 -0.0402,-0.90894 -0.008,-0.182 0.009,-0.3701 -0.0419,-0.5301 h -0.0168 v -0.0179 h -0.019 v 0.0179 c -0.045,0 -0.0521,0.097 -0.0541,0.13405 -0.016,0.279 0.0151,0.58088 0.0201,0.85088 0.005,0.288 -0.0143,0.57888 -0.0133,0.85088 0.002,0.197 0.0321,0.40024 0.0491,0.58924 0.003,0.22 0.008,0.44085 0.015,0.65985 0.006,1.106 -0.0438,2.17007 0.0502,3.25407 0.013,0.176 -0.0183,0.36289 -0.0283,0.53189 -0.008,0.16 0.003,0.34119 0.015,0.49319 0.011,0.13 0.007,0.23498 0.0642,0.33798 z m -1.44407,-0.97597 c -0.102,-0.034 -0.20416,-0.0712 -0.30716,-0.10716 -0.076,-0.034 -0.15282,-0.0678 -0.23082,-0.10179 -0.227,-0.077 -0.45496,-0.13233 -0.67096,-0.23333 -0.204,-0.094 -0.41014,-0.21384 -0.60214,-0.33584 -0.076,-0.056 -0.15288,-0.10901 -0.22688,-0.16201 -0.157,-0.092 -0.38618,-0.22687 -0.41218,-0.42687 h 0.0211 c 0,-0.072 0.26406,0.0668 0.29606,0.0828 0.196,0.113 0.38799,0.22492 0.58099,0.33692 0.275,0.135 0.57581,0.24627 0.86881,0.33727 0.214,0.065 0.42728,0.13205 0.64228,0.19605 0.084,0.025 0.19072,0.0457 0.26272,0.0957 0.094,0.069 0.16628,0.24907 0.0183,0.30107 -0.07,0.024 -0.16214,0.0162 -0.24014,0.0172 z m -6.69882,-0.001 c -0.114,-0.096 -0.11201,-0.27212 0.019,-0.35412 0.158,-0.1 0.39886,-0.0881 0.58386,-0.13906 0.641,-0.178 1.30481,-0.35002 1.89281,-0.64802 0.11,-0.063 0.2201,-0.12402 0.3301,-0.18602 0.095,-0.057 0.18004,-0.1588 0.29104,-0.1828 0.042,-0.008 0.11089,-0.006 0.13189,0.0351 0.069,0.147 -0.56384,0.53997 -0.67884,0.59497 l -0.55304,0.25986 c -0.062,0.033 -0.12911,0.069 -0.19211,0.10501 -0.135,0.046 -0.26894,0.0941 -0.40394,0.14014 -0.15,0.061 -0.30307,0.12689 -0.46307,0.16989 -0.07,0.015 -0.14492,0.0301 -0.21792,0.0441 -0.243,0.073 -0.46477,0.16093 -0.73977,0.16093 z m 8.22891,-0.5749 c -0.08,-0.12 -0.0562,-0.23623 0.0928,-0.26523 10e-4,0.005 10e-4,0.0109 10e-4,0.0179 0.072,0 -0.0159,0.20931 -0.0939,0.24731 z m -0.0452,-1.0602 c -0.076,-0.152 -0.0578,-0.3541 -0.0588,-0.5491 0.001,-0.238 0.003,-0.47883 0.003,-0.71683 0.004,-0.18 0.002,-0.3761 0.007,-0.5491 0,-0.066 -0.007,-0.15296 0.0201,-0.20896 -10e-4,-0.104 0.11028,0.054 0.11828,0.072 0.118,0.275 0.0378,0.82498 0.0398,1.13798 10e-4,0.23 0.0449,0.46913 -0.0111,0.67813 -0.016,0.06 -0.0609,0.10884 -0.11792,0.13584 z m 0.4129,-0.39785 c -0.108,-0.191 -0.0579,-0.41907 -0.0609,-0.64407 0,-0.179 -0.0219,-0.32311 0.0391,-0.47311 h 0.0362 c 0.167,-0.003 0.17499,0.90209 0.11899,1.03009 -0.027,0.057 -0.0733,0.0741 -0.13333,0.0871 z m -1.83581,-0.16093 v -0.019 c -0.092,10e-4 -0.25015,-0.0773 -0.32115,-0.13226 -0.20798,0.002 -0.41395,-0.12585 -0.58995,-0.19785 -0.556,-0.22698 -1.14677,-0.43512 -1.60177,-0.85912 -0.053,-0.046 -0.25029,-0.17782 -0.16129,-0.26882 0.018,-0.018 0.0461,-0.0201 0.0731,-0.0201 0.106,0.004 0.19198,0.0841 0.27598,0.13405 0.236,0.143 0.49015,0.27477 0.74515,0.37777 0.142,0.057 0.28791,0.088 0.43691,0.13298 0.215,0.066 0.43789,0.14727 0.65089,0.21827 0.191,0.065 0.39026,0.0839 0.55626,0.19391 0.082,0.056 0.13698,0.14181 0.13298,0.24981 -0.003,0.125 -0.0861,0.17232 -0.19713,0.19032 z m -6.58485,-0.13404 v -0.0183 c -0.185,10e-4 -0.2762,-0.2999 -0.1362,-0.4129 0.114,-0.091 0.35603,-0.0568 0.51003,-0.0638 0.115,-0.015 0.22685,-0.0312 0.34085,-0.0452 0.295,-0.039 0.55205,-0.15599 0.81505,-0.25699 0.196,-0.076 0.39314,-0.14906 0.58314,-0.23906 0.162,-0.076 0.69495,-0.51182 0.82795,-0.49282 0.006,0 0.011,0.003 0.019,0.004 0.014,0.004 0.0259,0.009 0.0409,0.014 0.036,0 10e-4,0.0869 -0.01,0.10788 -0.096,0.192 -0.57031,0.477 -0.75231,0.581 -0.68,0.38098 -1.40268,0.76321 -2.23868,0.82221 z m 6.47876,-2.19316 c -0.314,-0.107 -0.63508,-0.18302 -0.94408,-0.30502 -0.081,-0.044 -0.1587,-0.0871 -0.2387,-0.1301 -0.248,-0.096 -0.47407,-0.221 -0.70107,-0.362 -0.203,-0.128 -0.39514,-0.23671 -0.58314,-0.40071 -0.048,-0.042 -0.16379,-0.12221 -0.12079,-0.19821 0.06,-0.112 0.21777,0.0402 0.27777,0.0742 0.481,0.288 0.94817,0.51501 1.51217,0.64301 0.166,0.039 0.32882,0.09 0.49282,0.12401 0.182,0.039 0.38714,0.0388 0.54014,0.13082 0.132,0.078 0.17199,0.30494 0.019,0.38494 -0.072,0.037 -0.16611,0.0391 -0.25411,0.0391 z m -6.53001,-0.24695 v -0.0201 c -0.247,0.003 -0.24384,-0.32894 -0.0738,-0.42294 0.024,-0.009 0.047,-0.0189 0.071,-0.028 0.206,-0.045 0.42585,-0.0541 0.64085,-0.0871 0.193,-0.03 0.38624,-0.0839 0.57024,-0.12186 0.127,-0.025 0.25176,-0.0412 0.37276,-0.0792 0.34798,-0.109 0.69418,-0.23087 1.01718,-0.38387 0.129,-0.06 0.28286,-0.19985 0.44086,-0.17885 0,0.084 -0.08,0.11791 -0.12903,0.17491 -0.13,0.155 -0.39104,0.34588 -0.57204,0.42688 -0.074,0.025 -0.14901,0.053 -0.22401,0.081 -0.316,0.15 -0.62392,0.26189 -0.96092,0.36989 -0.114,0.041 -0.228,0.083 -0.343,0.12401 -0.134,0.034 -0.27411,0.047 -0.41111,0.076 -0.132,0.029 -0.24491,0.0682 -0.39891,0.0692 z m 6.53502,-2.32792 c 0.15,-0.002 0.30097,-0.005 0.45197,-0.008 0.251,-0.04 0.51295,-0.16282 0.70895,-0.31182 0.087,-0.097 0.17313,-0.19089 0.25913,-0.28889 0.139,-0.149 0.28998,-0.30804 0.31398,-0.51504 h -0.0201 c 0,-0.036 -0.14889,-0.019 -0.18889,-0.019 -0.397,0.002 -0.79302,0.004 -1.19102,0.007 -0.146,0 -0.34112,0.0272 -0.45412,-0.0348 -0.132,0.001 -0.31583,0.0809 -0.43583,0.0219 -0.043,-0.007 -0.0879,-0.0129 -0.1319,-0.0179 -0.149,0 -0.33219,0.0228 -0.45519,-0.0362 -0.064,0 -0.13789,-0.012 -0.18889,-0.038 -0.128,0.001 -0.39718,0.0342 -0.49318,-0.0158 -0.057,-0.005 -0.11289,-0.0112 -0.16989,-0.0172 -0.057,-0.008 -0.11296,-0.0129 -0.17096,-0.0179 -0.09,0 -0.20916,-0.0128 -0.26416,-0.0738 -0.032,0 -0.007,-0.10105 -0.005,-0.13405 0.008,-0.335 -0.24073,-0.63927 -0.58673,-0.63727 -0.28,0.002 -0.49911,0.20306 -0.55411,0.45806 -0.016,0.088 0.006,0.211 -0.0502,0.281 -0.024,0.029 -0.0697,0.0481 -0.11075,0.0391 -0.133,0.007 -0.26413,0.0139 -0.39713,0.0219 -0.03,-0.008 -0.0629,-0.013 -0.0939,-0.019 -0.311,10e-4 -0.58695,0.0403 -0.90895,0.0423 -0.081,0.001 -0.20023,0.0158 -0.26523,-0.0172 -0.227,0.002 -0.44492,0.0222 -0.67991,0.0222 -0.112,0.001 -0.25386,0.0128 -0.34086,-0.0362 -0.333,0.002 -0.67321,0.0291 -1.00321,0.0251 -0.118,0 -0.28085,0.0278 -0.37885,-0.0172 -0.102,0.001 -0.20187,0.002 -0.28386,0.0412 0,0.078 0.044,0.14396 0.071,0.20896 0.092,0.224 0.16789,0.29202 0.35089,0.44802 0.1,0.088 0.18391,0.19802 0.2939,0.26702 0.485,0.315 1.24506,0.31281 1.84406,0.18781 0.115,-0.032 0.23008,-0.0648 0.34408,-0.0968 0.382,-0.073 0.72581,-0.11724 1.04981,-0.30824 0.212,-0.124 0.38528,-0.29691 0.58028,-0.45591 0.05,-0.034 0.10268,-0.0658 0.15268,-0.0968 0.09,-0.068 0.18324,-0.21304 0.30824,-0.21004 0.177,10e-4 0.28878,0.22894 0.42078,0.32294 0.147,0.107 0.29227,0.22207 0.45627,0.30107 0.446,0.215 0.89106,0.43892 1.38206,0.56092 0.179,0.04 0.35589,0.082 0.53189,0.12402 0.102,0.018 0.21186,0.006 0.30286,0.043 z"
       style="fill:#0a335f;fill-opacity:1" />
    <path
       fill="#ffffff"
       d="m 579.425,244.844 c 0.091,-0.127 0.632,-0.726 0.6,-0.839 -0.009,-0.028 -0.042,-0.031 -0.067,-0.037 -0.165,-0.002 -0.328,-0.006 -0.492,-0.006 -0.289,0 -0.579,0.004 -0.87,0.004 0,0.008 0,0.012 10e-4,0.02 h -0.019 c 0,0.063 0.051,0.12 0.077,0.17 0.091,0.17 0.447,0.653 0.423,0.828 -0.007,0.058 -0.05,0.102 -0.103,0.121 -0.228,0.078 -0.502,0.011 -0.751,0.019 -0.131,0.007 -0.432,0.073 -0.548,0.02 -0.249,0.002 -1.113,0.124 -1.215,-0.095 -0.026,-0.052 0.009,-0.113 0.031,-0.157 0.102,-0.199 0.257,-0.383 0.391,-0.565 0.074,-0.111 0.146,-0.223 0.218,-0.332 v -0.019 c -0.019,-0.008 -0.038,-0.014 -0.056,-0.021 -0.533,0.004 -1.061,0.026 -1.59,0.028 v 0.038 c 0.019,0 0.774,0.914 0.859,1.019 0,0.024 -0.007,0.024 -0.02,0.038 -0.094,0.01 -0.191,0.023 -0.285,0.035 -0.157,0.007 -0.314,0.015 -0.472,0.024 -0.453,0.01 -0.93,-0.017 -1.362,0.027 0.001,0.053 0.645,0.675 0.732,0.764 0.548,0.577 1.119,1.13 1.692,1.694 0.197,0.203 0.393,0.403 0.59,0.603 0.063,0.062 0.121,0.129 0.202,0.157 0,0.011 0,0.025 0.001,0.038 0.127,-0.065 0.238,-0.195 0.342,-0.301 0.172,-0.175 0.343,-0.353 0.512,-0.528 0.108,-0.101 0.217,-0.2 0.325,-0.301 0.486,-0.506 1.004,-0.986 1.501,-1.488 0.204,-0.206 0.471,-0.417 0.63,-0.656 -0.037,-0.005 -0.074,-0.011 -0.113,-0.018 -0.156,0 -0.314,0.003 -0.472,0.004 -0.06,0.002 -0.134,0.019 -0.189,0 -0.216,0.002 -0.47,0.029 -0.644,-0.052 -0.002,-0.083 0.096,-0.172 0.141,-0.236 m 7.542,-6.26 c -0.061,0 -0.14,-0.009 -0.188,-0.038 -0.095,0.001 -0.285,-0.049 -0.36,-0.092 -0.172,0 -0.32,-0.071 -0.476,-0.101 -0.107,-0.02 -0.221,-0.041 -0.32,-0.06 -0.075,-0.008 -0.162,-0.006 -0.228,-0.042 -0.043,-0.005 -0.088,-0.011 -0.131,-0.018 -0.045,-0.005 -0.089,-0.012 -0.133,-0.017 -0.114,0.001 -0.255,0.017 -0.341,-0.037 -0.044,-0.006 -0.089,-0.012 -0.134,-0.017 -0.183,0 -0.406,0.028 -0.548,-0.055 -0.068,0 -0.15,0.007 -0.209,-0.017 -0.086,0 -0.151,0.021 -0.226,0.039 0,-0.039 -0.227,-0.071 -0.265,-0.094 -0.127,0.001 -0.287,0.024 -0.397,-0.015 -0.044,-0.007 -0.089,-0.012 -0.132,-0.019 -0.127,0.001 -0.28,0.014 -0.381,-0.036 -0.084,0.002 -0.178,-0.004 -0.245,-0.037 -0.123,0 -0.437,-0.032 -0.512,0.029 -0.121,0.096 -0.053,1.299 -0.048,1.525 -0.004,0.116 -0.011,0.228 -0.015,0.343 -0.005,0.119 0.036,0.522 -0.171,0.455 -0.115,0 -0.364,0.027 -0.451,-0.017 -0.125,0.001 -0.456,-0.025 -0.529,0.043 -0.13,0.124 -0.202,0.573 -0.269,0.753 -0.103,0.264 -0.268,0.529 -0.304,0.82 -0.004,0.03 -0.012,0.081 0.008,0.104 0.054,0.064 0.306,0.053 0.402,0.053 0.222,-0.003 1.237,-0.005 1.32,0.138 0.051,0.093 0.03,0.389 0.021,0.507 0.008,0.183 0.017,0.365 0.023,0.55 0.009,0.281 -0.055,0.61 0.03,0.87 0.645,-0.696 1.376,-1.334 2.04,-2.027 0.063,-0.078 0.123,-0.155 0.186,-0.231 0.165,-0.167 0.35,-0.316 0.522,-0.483 0.458,-0.452 0.883,-0.938 1.33,-1.391 0.344,-0.347 0.704,-0.688 1.048,-1.035 0.063,-0.063 0.174,-0.137 0.204,-0.224 0.026,-0.065 -0.085,-0.099 -0.121,-0.126 m -1.249,17.972 c 0.105,0.122 0.209,0.246 0.315,0.369 0.121,0.128 0.262,0.227 0.388,0.347 0.165,0.169 0.33,0.339 0.495,0.508 0.188,0.178 0.375,0.357 0.561,0.537 0.366,0.379 0.729,0.758 1.095,1.137 0.562,0.536 1.135,1.066 1.65,1.643 0.133,0.149 0.329,0.273 0.432,0.439 0.093,-0.128 0.027,-0.466 0.037,-0.643 0.024,-0.419 0.004,-0.872 0.009,-1.307 0.01,-0.22 0.019,-0.44 0.029,-0.66 -0.013,-0.228 -0.023,-0.454 -0.036,-0.682 0.01,-0.133 0.019,-0.267 0.032,-0.398 -0.004,-0.064 -0.009,-0.126 -0.011,-0.189 0.008,-0.076 0.015,-0.152 0.021,-0.229 -0.006,-0.062 -0.016,-0.124 -0.027,-0.188 -0.028,-0.348 -0.031,-0.699 -0.025,-1.06 0.016,-0.183 0.032,-0.365 0.049,-0.549 -0.01,-0.101 -0.022,-0.201 -0.035,-0.302 l -0.006,-0.682 c -0.005,-0.077 -0.008,-0.15 -0.012,-0.226 0.004,-0.146 0.039,-0.296 0.036,-0.435 -0.005,-0.201 -0.053,-0.412 -0.05,-0.626 0.018,-0.258 0.034,-0.516 0.051,-0.776 -0.012,-0.157 -0.025,-0.314 -0.036,-0.472 0.008,-0.058 0.013,-0.114 0.021,-0.172 0.003,-0.17 -0.013,-0.343 -0.018,-0.508 0.007,-0.121 0.017,-0.241 0.024,-0.362 0,-0.093 -0.023,-0.179 -0.03,-0.264 -0.012,-0.181 -10e-4,-0.365 0.02,-0.531 0.034,-0.262 0.024,-0.605 -0.004,-0.869 -0.009,-0.063 -0.018,-0.126 -0.028,-0.191 -0.009,-0.158 0.03,-0.299 0.028,-0.454 -0.01,-0.088 -0.022,-0.174 -0.033,-0.264 0.004,-0.093 0.009,-0.187 0.012,-0.283 -0.004,-0.127 -0.012,-0.252 -0.019,-0.38 -0.002,-0.119 0.074,-0.799 -0.04,-0.799 -0.073,0.001 -0.677,0.66 -0.778,0.761 -0.754,0.763 -1.519,1.539 -2.267,2.297 -0.12,0.121 -0.222,0.263 -0.338,0.377 -0.107,0.101 -0.214,0.206 -0.321,0.307 -0.054,0.064 -0.11,0.13 -0.163,0.193 -0.725,0.713 -1.46,1.437 -2.187,2.148 -0.13,0.128 -1.074,1.072 -1.076,1.135 0.002,0.017 0.006,0.035 0.007,0.053 0.074,0.177 0.37,0.376 0.519,0.517 0.161,0.153 0.279,0.325 0.429,0.478 0.135,0.14 0.284,0.274 0.421,0.411 0.051,0.043 0.102,0.087 0.154,0.13 0.119,0.121 0.236,0.244 0.354,0.365 0.117,0.117 0.233,0.232 0.351,0.349 m -4.35,10.543 c 0.061,0.044 0.128,0.059 0.183,0.12 0.038,0.057 0.076,0.115 0.114,0.173 0.102,0.148 0.208,0.273 0.332,0.405 0.044,0.039 0.089,0.08 0.134,0.121 0.083,0.044 0.225,0.023 0.328,0.022 0.216,-10e-4 0.429,0.009 0.623,0.029 0.097,0.011 0.184,0.005 0.266,0.041 0.145,-0.002 0.289,-0.005 0.433,-0.008 0.165,-0.019 0.338,-0.058 0.513,-0.058 0.153,-0.002 0.285,0.056 0.436,0.051 0.05,-0.01 0.101,-0.016 0.151,-0.024 0.182,-0.022 0.41,-0.022 0.568,0.027 v -0.019 h 0.019 c 0,-0.024 0.005,-0.019 -0.019,-0.019 -0.003,-0.01 -0.007,-0.019 -0.011,-0.03 -0.182,-0.244 -0.452,-0.431 -0.666,-0.636 l -1.213,-1.192 c -0.091,-0.094 -0.198,-0.166 -0.287,-0.259 -0.364,-0.371 -0.692,-0.774 -1.066,-1.13 -0.135,-0.132 -0.27,-0.262 -0.403,-0.392 -0.077,-0.063 -0.15,-0.128 -0.224,-0.193 -0.084,-0.1 -0.168,-0.198 -0.251,-0.297 -0.226,-0.238 -0.465,-0.47 -0.706,-0.695 -0.112,-0.133 -0.225,-0.266 -0.337,-0.399 -0.251,-0.242 -0.502,-0.485 -0.751,-0.727 -0.426,-0.419 -0.846,-0.849 -1.274,-1.263 -0.143,-0.133 -0.267,-0.301 -0.423,-0.407 v -0.02 h -0.02 v 0.02 h -0.02 c 0.007,0.056 0.013,0.113 0.019,0.17 0.002,0.131 -0.023,0.263 -0.009,0.397 0.015,0.07 0.032,0.139 0.047,0.209 0.008,0.13 -0.038,0.238 0.023,0.35 0.038,0.071 0.126,0.098 0.181,0.153 0.11,0.108 0.174,0.247 0.307,0.334 0.137,0.092 0.31,0.119 0.459,0.19 0.094,0.05 0.17,0.129 0.26,0.186 0.201,0.131 0.435,0.244 0.587,0.452 0.04,0.083 0.083,0.165 0.123,0.248 0.05,0.071 0.101,0.143 0.151,0.216 0.04,0.098 0.035,0.209 0.063,0.314 0.038,0.142 0.111,0.272 0.114,0.439 -0.017,0.146 -0.035,0.29 -0.053,0.435 -0.02,0.188 -0.124,0.356 -0.236,0.497 -0.048,0.059 -0.106,0.117 -0.136,0.187 -0.036,0 0,0.05 0.011,0.07 0.031,0.043 0.061,0.086 0.091,0.127 0.129,0.196 0.263,0.407 0.457,0.551 0.099,0.073 0.112,0.177 0.188,0.268 0.09,0.105 0.222,0.16 0.315,0.27 0.048,0.064 0.096,0.129 0.145,0.191 0.039,0.073 0.057,0.149 0.117,0.212 0.061,0.064 0.129,0.094 0.194,0.148 0.051,0.048 0.102,0.097 0.153,0.145 m -10.965,0.832 c 0.186,-10e-4 0.419,-0.028 0.587,0.018 0.135,-0.028 0.288,-0.02 0.435,-0.023 0.115,-0.007 0.227,-0.015 0.342,-0.02 0.157,0 0.314,0 0.471,10e-4 0.071,-0.014 0.14,-0.024 0.208,-0.038 0.144,-0.001 0.314,0.096 0.455,0.049 0.168,-0.057 0.312,-0.245 0.439,-0.375 0.205,-0.201 0.407,-0.401 0.608,-0.602 0.135,-0.145 0.261,-0.312 0.398,-0.454 0.17,-0.175 0.355,-0.3 0.526,-0.479 0.102,-0.105 0.162,-0.223 0.261,-0.326 0.056,-0.044 0.113,-0.088 0.17,-0.132 0.11,-0.091 0.21,-0.213 0.271,-0.335 -0.06,0 -0.149,-0.13 -0.19,-0.17 -0.156,-0.165 -0.279,-0.332 -0.331,-0.548 -0.014,-0.087 -0.026,-0.174 -0.039,-0.262 -0.029,-0.139 -0.065,-0.277 -0.048,-0.434 0.024,-0.102 0.048,-0.201 0.073,-0.303 0.044,-0.104 0.087,-0.208 0.131,-0.311 0.053,-0.116 0.079,-0.237 0.156,-0.344 0.06,-0.079 0.16,-0.107 0.234,-0.163 0.074,-0.052 0.103,-0.143 0.178,-0.198 0.069,-0.035 0.14,-0.066 0.21,-0.099 0.098,-0.065 0.195,-0.13 0.291,-0.194 0.131,-0.083 0.289,-0.139 0.403,-0.247 0.074,-0.103 0.148,-0.204 0.222,-0.307 0.067,-0.083 0.177,-0.142 0.225,-0.239 0.034,-0.067 0.058,-0.16 0.063,-0.239 0.004,-0.075 -0.017,-0.157 0.002,-0.228 0.038,-0.167 0.106,-0.406 0.076,-0.586 -0.151,0.002 -0.469,0.384 -0.583,0.496 -0.235,0.221 -0.471,0.439 -0.704,0.659 -0.172,0.181 -0.342,0.364 -0.513,0.546 -0.338,0.353 -0.702,0.681 -1.035,1.027 -0.178,0.186 -0.361,0.37 -0.541,0.557 -0.075,0.087 -0.152,0.176 -0.227,0.264 -0.619,0.605 -1.232,1.206 -1.847,1.808 -0.163,0.177 -0.326,0.355 -0.49,0.531 -0.353,0.357 -0.68,0.711 -1.048,1.05 -0.183,0.17 -0.569,0.399 -0.633,0.637 0.261,-0.001 0.527,0.015 0.794,0.013 m -3.991,-18.648 c -0.277,-0.257 -0.502,-0.557 -0.772,-0.816 -0.4,-0.391 -0.798,-0.78 -1.195,-1.17 -0.133,-0.137 -0.325,-0.277 -0.423,-0.429 h -0.02 c 0,-0.039 -0.043,0.068 -0.047,0.096 -0.002,0.137 -0.005,0.276 -0.006,0.416 0.008,0.416 0.016,0.832 0.026,1.247 0.002,0.346 0.007,0.675 0.003,1.002 -0.004,0.115 -0.01,0.229 -0.014,0.342 0.008,0.311 0.026,0.655 0.023,0.984 -0.004,0.139 -0.01,0.277 -0.015,0.416 0.004,0.202 0.019,0.411 0.02,0.625 -0.005,0.126 -0.009,0.251 -0.015,0.379 0.003,0.36 0.003,0.718 0.006,1.078 -0.005,0.107 -0.011,0.214 -0.016,0.321 0.013,0.133 0.025,0.267 0.036,0.398 0.011,0.299 -0.02,0.58 -0.008,0.871 0.011,0.22 0.022,0.44 0.032,0.662 -0.005,0.474 -0.027,0.944 -0.015,1.419 0.014,0.226 0.028,0.455 0.043,0.681 -0.008,0.12 -0.017,0.24 -0.027,0.36 -0.004,0.482 0.012,0.974 0.008,1.438 -0.006,0.101 -0.011,0.202 -0.015,0.303 0.007,0.119 0.015,0.239 0.023,0.358 10e-4,0.141 -0.026,0.274 -0.018,0.419 0.011,0.081 0.021,0.162 0.031,0.244 -0.003,0.225 -0.011,0.456 -0.01,0.682 0.194,-0.071 0.349,-0.284 0.497,-0.431 0.329,-0.317 0.654,-0.635 0.979,-0.953 0.114,-0.12 0.225,-0.239 0.339,-0.36 0.245,-0.232 0.491,-0.469 0.712,-0.724 0.075,-0.087 0.145,-0.177 0.233,-0.259 0.161,-0.153 0.333,-0.293 0.49,-0.458 0.068,-0.072 0.103,-0.15 0.176,-0.219 0.377,-0.36 0.777,-0.696 1.159,-1.058 0.364,-0.374 0.727,-0.749 1.089,-1.125 0.231,-0.218 1.683,-1.582 1.597,-1.792 -0.026,-0.04 -0.053,-0.079 -0.08,-0.12 -0.171,-0.291 -0.569,-0.619 -0.83,-0.856 -0.09,-0.08 -0.146,-0.189 -0.233,-0.279 -0.215,-0.218 -0.427,-0.425 -0.643,-0.642 -0.297,-0.294 -0.598,-0.588 -0.897,-0.881 -0.199,-0.201 -0.394,-0.401 -0.591,-0.602 -0.05,-0.058 -0.1,-0.115 -0.149,-0.171 -0.495,-0.461 -0.988,-0.937 -1.483,-1.396 m 8.038,-9.022 c -0.163,0 -0.708,0.038 -0.804,-0.027 -0.038,-0.026 -0.042,-0.074 -0.045,-0.118 -0.003,-0.506 -0.007,-1.011 -0.011,-1.515 0.003,-0.218 0.028,-0.536 -0.016,-0.754 -0.013,-0.053 -0.042,-0.1 -0.084,-0.134 v -0.02 c -0.156,0.002 -0.293,0.068 -0.437,0.091 -0.138,0.021 -0.282,-0.013 -0.414,-0.013 -0.101,0.016 -0.202,0.028 -0.304,0.04 -0.195,0.018 -0.391,0.037 -0.586,0.056 -0.076,0.009 -0.196,0.018 -0.265,-0.011 -0.451,0.003 -0.87,0.093 -1.305,0.134 -0.201,0.023 -0.397,0.019 -0.583,0.053 -0.159,0.027 -0.318,0.051 -0.475,0.079 -0.069,0.015 -0.139,0.031 -0.21,0.046 -0.098,0.005 -0.199,0.009 -0.3,0.015 -0.228,0.041 -0.456,0.082 -0.684,0.122 -0.174,0.025 -0.395,0.028 -0.545,0.103 h -0.021 v 0.038 c 0.03,0 0.014,-0.008 0.028,0.014 0.103,0.161 0.296,0.335 0.44,0.466 0.133,0.132 0.265,0.264 0.397,0.399 0.202,0.201 0.421,0.38 0.628,0.584 0.102,0.099 0.204,0.199 0.306,0.299 0.083,0.091 0.167,0.185 0.251,0.279 0.52,0.498 1.052,0.984 1.561,1.503 0.314,0.32 0.604,0.659 0.925,0.966 0.448,0.431 0.891,0.851 1.316,1.299 0.122,0.127 0.248,0.255 0.372,0.384 0.08,-0.115 0.032,-0.552 0.019,-0.701 -0.02,-0.241 -0.025,-0.483 -0.027,-0.738 0,-0.161 -0.02,-0.329 0.03,-0.468 0.047,-0.135 0.142,-0.251 0.224,-0.371 0.044,-0.069 0.068,-0.16 0.148,-0.205 0.116,-0.063 0.481,-0.079 0.632,-0.073 0.268,0.011 0.545,0.029 0.834,0.028 -0.002,-0.184 -0.119,-0.411 -0.18,-0.572 -0.114,-0.288 -0.229,-0.574 -0.336,-0.865 -0.041,-0.108 -0.078,-0.254 -0.156,-0.344 -0.057,-0.061 -0.136,-0.02 -0.208,-0.05 -0.04,-0.007 -0.077,-0.011 -0.115,-0.019 m 3.414,-3.757 c -0.064,-0.08 -0.131,-0.157 -0.198,-0.239 -0.164,-0.167 -0.334,-0.322 -0.442,-0.523 h -0.017 c -0.117,0.129 -0.234,0.258 -0.35,0.387 -0.114,0.102 -0.345,0.234 -0.479,0.301 v 0.019 h -0.019 v 0.017 h 0.019 c 0,0.033 0.03,0.022 0.056,0.025 0.069,0.016 0.14,0.031 0.209,0.044 0.223,0.007 0.443,0.015 0.662,0.021 0.012,0.037 0.021,0.076 0.031,0.113 0.01,0.095 0.018,0.19 0.026,0.284 -0.008,0.087 -0.019,0.176 -0.029,0.265 0.006,0.088 0.01,0.176 0.013,0.265 -0.002,0.189 -0.025,0.394 -0.01,0.587 0.023,0.107 0.046,0.215 0.07,0.322 0.023,0.131 0.058,0.291 0.148,0.386 0.092,0.102 0.217,0.093 0.334,0.141 0.037,-0.019 0.08,-0.039 0.093,-0.083 0.04,-0.126 0.01,-0.293 0.009,-0.43 0.005,-0.327 0.008,-0.654 0.011,-0.983 0.012,-0.077 0.062,-0.144 0.095,-0.212 0.047,-0.108 0.091,-0.213 0.139,-0.319 0.018,0 0.02,0.001 0.013,-0.014 -0.084,-0.158 -0.254,-0.265 -0.384,-0.374"
       id="path21467" />
    <path
       fill="#ffffff"
       d="m 577.782,243.991 c 0,0.053 0.412,0.652 0.473,0.724 0.031,0.038 0.077,0.068 0.12,0.086 v 0.02 c 0.094,-0.001 0.19,-0.002 0.285,-0.002 -0.003,-0.117 -0.45,-0.777 -0.567,-0.826 -0.082,-0.038 -0.195,-0.019 -0.292,-0.022 v 0.02 h -0.019 m -2.884,0.056 c -0.106,-0.044 -0.265,-0.017 -0.389,-0.02 0.002,0.171 0.696,0.67 0.836,0.81 h 0.286 c -0.002,-0.14 -0.597,-0.732 -0.733,-0.79 m 5.162,-3.734 c -0.121,-0.054 -0.285,0.051 -0.353,0.139 -0.073,0.1 -0.099,0.213 -0.137,0.327 -0.059,0.181 -0.119,0.368 -0.189,0.546 -0.047,0.12 -0.138,0.281 -0.12,0.422 0.011,0.088 0.094,0.124 0.156,0.169 0.054,-0.013 0.094,-0.029 0.126,-0.077 0.036,-0.057 0.049,-0.119 0.071,-0.184 0.059,-0.176 0.117,-0.347 0.168,-0.53 0.059,-0.206 0.146,-0.416 0.235,-0.61 0.013,-0.032 0.107,-0.175 0.043,-0.202"
       id="path21469" />
    <path
       fill="#ffffff"
       d="m 574.067,242.698 c 0.076,0.132 1.535,0.019 1.777,0.018 0.378,-0.003 0.712,0.05 1.082,0.05 0.49,-0.003 1.013,-0.041 1.513,-0.043 0.254,-0.002 0.532,0.007 0.795,0.015 0.596,0.017 1.215,-0.012 1.796,-0.015 10e-4,0.005 10e-4,0.013 10e-4,0.019 0.031,0 0.034,0.168 0.034,0.208 0.002,0.379 0.01,0.774 0.012,1.172 10e-4,0.274 -0.007,0.552 0.04,0.796 0.309,-0.163 0.272,-0.551 0.283,-0.891 0.004,-0.211 0.018,-0.455 0.011,-0.681 -0.011,-0.122 -0.023,-0.241 -0.034,-0.36 -0.011,-0.18 0.042,-0.383 -0.026,-0.548 v -0.039 h -0.019 c 0,0.036 -0.117,0.021 -0.151,0.021 -0.3,0.002 -0.581,-0.016 -0.89,-0.013 -0.134,0 -0.321,0.028 -0.435,-0.017 -0.114,0 -0.262,0.022 -0.36,-0.017 -0.348,0.001 -0.677,0.003 -1.021,0.026 -0.154,0.012 -0.363,0.082 -0.511,0.021 -0.254,0 -0.504,0.021 -0.757,0.013 -0.055,-0.003 -0.125,0.014 -0.171,-0.008 -0.143,0 -0.461,0.056 -0.568,0.002 -0.083,0 -0.177,0.011 -0.246,-0.018 -0.239,0.003 -0.48,0.005 -0.718,0.009 -0.144,0.007 -0.303,0.012 -0.454,0.02 -0.052,0 -0.102,-10e-4 -0.154,-10e-4 -0.055,-0.007 -0.111,-0.012 -0.169,-0.019 -0.279,0.002 -0.504,-0.065 -0.64,0.174 -0.012,0.023 -0.037,0.076 -0.02,0.106 m 7.216,-4.727 c -0.057,-0.079 -0.227,-0.099 -0.318,-0.112 0.004,0.474 -0.024,0.979 -0.005,1.461 0.005,0.137 -0.02,0.298 0.009,0.429 0.008,0.045 0.033,0.065 0.064,0.098 0.098,-0.002 0.188,0 0.265,-0.04 0.027,0 0.034,-0.202 0.027,-0.245 -0.016,-0.103 0.008,-0.206 0.008,-0.322 -10e-4,-0.17 -0.028,-0.321 -0.02,-0.491 0.012,-0.176 0.064,-0.644 -0.03,-0.778 m -5.545,-1.078 c -0.196,0.02 -0.378,0.159 -0.554,0.234 -0.14,0.057 -0.301,0.084 -0.429,0.161 h -0.019 v 0.02 h 0.019 c 0,0.026 -0.005,0.019 0.019,0.019 0.278,-0.002 1.585,-0.051 1.704,0.066 0.059,0.058 0.058,0.3 0.058,0.397 0.004,0.611 -0.069,1.43 0.493,1.743 0.082,0.047 0.167,0.055 0.257,0.089 0.155,0 0.538,-0.057 0.519,-0.265 -0.004,-0.05 -0.063,-0.05 -0.107,-0.057 -0.37,-0.044 -0.443,-0.246 -0.596,-0.534 -0.125,-0.233 -0.105,-0.635 -0.111,-0.942 -0.007,-0.299 -0.022,-0.584 -0.024,-0.887 h -0.017 c 0,-0.036 -0.187,0 -0.228,-0.019 -0.104,0.001 -0.193,-0.028 -0.285,-0.033 -0.234,0.003 -0.468,0.005 -0.699,0.008 m 2.87,0.126 c -0.088,0.075 -0.152,0.247 -0.162,0.363 0.094,-0.001 0.202,-0.009 0.285,0.017 0.218,-0.001 0.434,-0.015 0.642,-0.022 v -0.039 c -0.07,0.001 -0.157,-0.055 -0.215,-0.081 -0.173,-0.078 -0.35,-0.156 -0.524,-0.236 0,-0.023 -0.01,-0.015 -0.026,-0.002"
       id="path21471" />
    <path
       fill="#ee293d"
       d="m 576.004,274.868 c -0.286,-0.034 -0.574,-0.069 -0.861,-0.103 -0.249,-0.04 -0.493,-0.083 -0.763,-0.093 -0.587,-0.113 -1.176,-0.225 -1.763,-0.338 -0.826,-0.169 -1.609,-0.517 -2.367,-0.83 -1.42,-0.586 -2.758,-1.266 -4.047,-2.116 -0.305,-0.2 -2.435,-1.693 -2.435,-1.925 0.347,-0.028 0.696,-0.056 1.042,-0.083 0.836,-0.049 1.709,-0.017 2.541,-0.017 0.513,-0.025 1.026,-0.052 1.541,-0.078 0.202,0.095 0.525,0.046 0.771,0.046 0.702,10e-4 1.37,-0.044 2.04,-0.043 0.345,0.145 0.902,0.018 1.269,0.005 1.133,0 2.267,0 3.4,-0.001 1.27,-0.029 2.54,-0.057 3.81,-0.086 2.342,0.032 4.685,0.064 7.027,0.095 0.175,0.064 0.435,0.002 0.636,0.002 0.407,-0.01 0.816,-0.023 1.222,-0.034 0.212,0.01 0.423,0.02 0.636,0.031 0.398,-0.011 0.839,-0.051 1.268,-0.038 0.094,0.004 0.36,-0.015 0.456,-0.015 0.288,0 -0.23,0.411 -0.319,0.511 -0.296,0.333 -0.624,0.564 -0.974,0.796 -0.209,0.165 -0.418,0.331 -0.628,0.496 -0.427,0.286 -0.856,0.571 -1.284,0.858 -2.678,1.616 -5.264,2.571 -8.592,2.9 -0.483,0.01 -0.964,0.019 -1.449,0.029 -0.702,0.011 -1.461,0.032 -2.177,0.031 m -13.364,-6.451 c -0.291,-0.297 -0.723,-0.729 -1.014,-1.025 -0.605,-0.814 -1.208,-1.627 -1.812,-2.441 -1.271,-2.142 -2.046,-4.37 -2.594,-6.869 -0.089,-0.399 -0.087,-0.795 -0.126,-1.218 -0.195,-2.059 -0.252,-4.374 0.077,-6.404 0.09,-0.336 0.18,-0.671 0.269,-1.004 0.102,-0.555 0.184,-1.066 0.356,-1.581 0.176,-0.428 0.35,-0.853 0.524,-1.279 0.208,-0.627 0.526,-1.19 0.824,-1.769 0.707,-1.376 1.525,-2.684 2.522,-3.927 0.145,-0.18 0.508,-0.685 0.766,-0.685 v 0.045 c 0.201,0.38 0.061,1.531 0.047,1.997 -0.002,0.785 -0.005,1.569 -0.006,2.356 0,0.702 -0.028,1.444 0.006,2.176 0.072,1.563 0.01,3.182 0.034,4.763 0.019,1.336 0.088,2.712 0.087,4.079 -0.002,1.285 -0.077,2.695 0.032,3.94 -0.01,0.139 -0.02,0.276 -0.031,0.416 l -0.003,1.177 0.066,1.628 c -0.036,1.168 -0.028,2.355 -0.067,3.542 -0.029,0.833 0.075,1.635 0.043,2.083 m 29.906,-0.127 c -0.064,-0.8 0.068,-2.04 0.057,-2.881 -0.029,-1.812 -0.036,-3.613 -0.035,-5.489 0.003,-3.062 0.004,-5.841 0.007,-8.797 10e-4,-1.654 -0.083,-3.304 -0.001,-4.985 -0.006,-0.681 -0.011,-1.362 -0.018,-2.042 10e-4,-1.25 0.145,-2.557 -0.118,-3.759 -0.017,-0.073 -0.179,-0.61 -0.05,-0.61 0.428,0 2.394,2.838 2.669,3.291 0.198,0.362 0.396,0.723 0.594,1.084 0.108,0.246 0.218,0.492 0.327,0.739 0.382,0.678 0.82,1.501 1.075,2.246 0.538,1.574 0.861,3.192 1.086,4.926 0.075,0.569 0.052,1.119 0.062,1.72 0.014,0.317 0.028,0.635 0.041,0.951 -0.027,1.698 -0.226,3.494 -0.664,5.005 -0.434,1.491 -1.109,2.943 -1.853,4.288 -0.26,0.468 -0.583,0.899 -0.871,1.356 -0.389,0.61 -2.053,3.148 -2.308,2.957 m -2.729,-30.724 c -1.162,-0.874 -3.578,-0.966 -5.115,-1.154 -0.394,-0.05 -0.788,-0.101 -1.183,-0.15 -1.918,-0.092 -4.444,-0.27 -5.134,-2.24 -0.07,-0.213 -0.063,-0.257 -0.135,-0.469 -0.032,-0.188 0.856,-0.01 1.263,-0.01 0.117,0.059 0.309,0.046 0.454,0.046 0.09,0.015 0.181,0.03 0.272,0.045 0.226,0.125 0.575,0.137 0.861,0.138 0.19,0.095 0.447,0.09 0.681,0.09 0.248,0.137 0.857,0.229 1.177,0.229 0.542,0.186 1.085,0.372 1.625,0.56 1.537,0.623 3.169,1.25 4.482,2.302 0.194,0.155 0.44,0.206 0.752,0.613 m -23.891,-0.386 c 0.341,-0.41 0.825,-0.505 1.249,-0.793 0.242,-0.179 0.596,-0.363 0.835,-0.539 0.93,-0.446 1.632,-0.81 2.58,-1.125 1.044,-0.347 2.065,-0.676 3.188,-0.881 0.379,-0.07 2.967,-0.54 3.064,-0.298 0.155,0.393 -0.688,1.352 -0.982,1.601 -0.273,0.232 -0.605,0.379 -0.906,0.544 -0.288,0.159 -0.63,0.251 -0.949,0.337 -0.422,0.117 -0.831,0.252 -1.28,0.327 -0.431,0.074 -0.856,0.077 -1.31,0.12 -0.396,0.063 -0.789,0.128 -1.184,0.192 -0.512,0.069 -1.025,0.062 -1.536,0.125 -0.937,0.118 -1.813,0.333 -2.769,0.39"
       id="path21479" />
  </g>
</svg>
